<svg xmlns="http://www.w3.org/2000/svg" width="512" height="512" viewBox="0 0 512 512" fill="#fff"><path d="m49.396 32.061a16 16 0 0 0-5.5351 0.48438 16 16 0 0 0-7.1738 4.1406 16 16 0 0 0 0 22.629l205.15 205.15c-11.205 15.703-17.832 34.874-17.832 55.539 0 52.83 43.17 96 96 96 52.83 0 96-43.17 96-96s-43.17-96-96-96c-20.665 0-39.836 6.627-55.539 17.832l-205.15-205.15a16 16 0 0 0-9.9199-4.625zm270.6 127.94c-26.654 0-51.792 6.598-73.926 18.191l23.896 23.896c15.356-6.4962 32.26-10.088 50.029-10.088 70.882 0 128 57.118 128 128s-57.118 128-128 128c-70.882 0-128-57.118-128-128 0-17.769 3.5917-34.673 10.088-50.029l-23.896-23.896c-11.593 22.133-18.191 47.272-18.191 73.926 0 88.176 71.824 160 160 160 88.176 0 160-71.824 160-160s-71.824-160-160-160z"/></svg>