<svg xmlns="http://www.w3.org/2000/svg" width="512" height="512" viewBox="0 0 512 512" fill="#fff"><path d="m251.86 32.545a16.002 16.002 0 0 0-7.1738 4.1406l-56.234 56.236h-79.529a16.002 16.002 0 0 0-16 16v79.529l-56.236 56.234a16.002 16.002 0 0 0 0 22.629l56.236 56.234v79.529a16.002 16.002 0 0 0 16 16h79.529l56.234 56.236a16.002 16.002 0 0 0 22.629 0l56.234-56.236h79.529a16.002 16.002 0 0 0 16-16v-79.529l56.236-56.234a16.002 16.002 0 0 0 0-22.629l-56.236-56.234v-79.529a16.002 16.002 0 0 0-16-16h-79.529l-56.234-56.236a16.002 16.002 0 0 0-15.455-4.1406zm4.1406 111.45a112 112 0 0 1 112 112 112 112 0 0 1-112 112 112 112 0 0 1-112-112 112 112 0 0 1 112-112zm0 32a80 80 0 0 0-80 80 80 80 0 0 0 80 80 80 80 0 0 0 80-80 80 80 0 0 0-80-80z"/></svg>