<svg xmlns="http://www.w3.org/2000/svg" width="512" height="512" viewBox="0 0 512 512" fill="#fff"><path d="m80 32c-26.315 0-48 21.685-48 48v352c0 26.315 21.685 48 48 48h352c26.315 0 48-21.685 48-48v-352c0-26.315-21.685-48-48-48zm321.39 112.06a16 16 0 0 1 9.9199 4.625 16 16 0 0 1 4.584 9.5234 16 16 0 0 1-0.79688 7.0762 16 16 0 0 1-3.7871 6.0293l-120 120a16.002 16.002 0 0 1-22.629 0l-36.686-36.686-108.69 108.69a16 16 0 0 1-22.629 0 16 16 0 0 1-4.1406-7.1738 16 16 0 0 1 0-8.2812 16 16 0 0 1 4.1406-7.1738l120-120a16.002 16.002 0 0 1 22.629 0l36.686 36.686 108.69-108.69a16 16 0 0 1 7.1738-4.1406 16 16 0 0 1 5.5352-0.48437z"/></svg>