<svg xmlns="http://www.w3.org/2000/svg" width="512" height="512" viewBox="0 0 512 512" fill="#fff"><path d="m80 32c-26.315 0-48 21.685-48 48v352c0 26.315 21.685 48 48 48h352c26.315 0 48-21.685 48-48v-352c0-26.315-21.685-48-48-48h-352zm176 104c8.864 0 16 7.136 16 16v208c0 8.864-7.136 16-16 16s-16-7.136-16-16v-208c0-8.864 7.136-16 16-16zm-104 60c8.864 0 16 7.136 16 16v148c0 8.864-7.136 16-16 16s-16-7.136-16-16v-148c0-8.864 7.136-16 16-16zm208 60c8.864 0 16 7.136 16 16v88c0 8.864-7.136 16-16 16s-16-7.136-16-16v-88c0-8.864 7.136-16 16-16z"/></svg>