<svg xmlns="http://www.w3.org/2000/svg" width="512" height="512" viewBox="0 0 512 512" fill="#fff"><path d="m256 32a224 224 0 0 0-224 224 224 224 0 0 0 224 224 224 224 0 0 0 224-224 224 224 0 0 0-224-224zm0 112a16 16 0 0 1 16 16v89.371l63.195 63.197a16 16 0 0 1 0 22.627 16 16 0 0 1-22.627 0l-67.883-67.881a16 16 0 0 1-1.3809-1.5762 16 16 0 0 1-0.79883-1.1953 16 16 0 0 1-0.36914-0.55664 16 16 0 0 1-0.5625-1.1445 16 16 0 0 1-0.36719-0.75586 16 16 0 0 1-0.34961-1.0254 16 16 0 0 1-0.32617-0.98633 16 16 0 0 1-0.19531-0.98633 16 16 0 0 1-0.20508-1.084 16 16 0 0 1-0.0684-1.0508 16 16 0 0 1-0.06246-0.95312v-96a16 16 0 0 1 16-16z"/></svg>