<svg xmlns="http://www.w3.org/2000/svg" width="512" height="512" viewBox="0 0 512 512" fill="#fff"><path d="m129.4 112.06a16 16 0 0 0-5.5351 0.48437 16 16 0 0 0-7.1738 4.1406 16 16 0 0 0 0 22.629l116.68 116.68-116.68 116.68a16 16 0 0 0 0 22.629 16 16 0 0 0 22.629 0l116.68-116.68 116.68 116.68a16 16 0 0 0 22.629 0 16 16 0 0 0 0-22.629l-116.68-116.68 116.68-116.68a16 16 0 0 0 0-22.629 16 16 0 0 0-15.455-4.1406 16 16 0 0 0-7.1738 4.1406l-116.68 116.68-116.68-116.68a16 16 0 0 0-9.9198-4.625z"/></svg>