<svg xmlns="http://www.w3.org/2000/svg" width="512" height="512" viewBox="0 0 512 512" fill="#fff"><path d="m176 112a16 16 0 0 0-4.1406 0.54492 16 16 0 0 0-7.1719 4.1406l-128 128a16.002 16.002 0 0 0 0 22.629l128 128a16 16 0 0 0 22.627 0 16 16 0 0 0 0-22.629l-116.69-116.69 116.69-116.69a16 16 0 0 0 0-22.629 16 16 0 0 0-11.314-4.6856zm160 0a16 16 0 0 0-4.1406 0.54492 16 16 0 0 0-7.1738 4.1406 16 16 0 0 0 0 22.629l116.69 116.69-116.69 116.69a16 16 0 0 0 0 22.629 16 16 0 0 0 22.629 0l128-128a16.002 16.002 0 0 0 0-22.629l-128-128a16 16 0 0 0-11.314-4.6856z"/></svg>