<svg xmlns="http://www.w3.org/2000/svg" width="512" height="512" viewBox="0 0 512 512" fill="#fff"><path d="m242.03 32.184a16.002 16.002 0 0 0-5.7148 0.16016c-23.293 4.9106-45.664 13.465-66.291 25.348a16.002 16.002 0 0 0-0.0137 0.0078c-108.09 62.405-145.25 201.09-82.844 309.18 62.405 108.09 201.09 145.25 309.18 82.842a16.002 16.002 0 0 0 0.0723-0.041c20.433-11.938 38.867-27.008 54.631-44.658a16.002 16.002 0 0 0-15.283-26.303c-82.36 17.626-166.55-19.7-208.79-92.564-42.061-73.144-32.18-164.9 24.496-227.4a16.002 16.002 0 0 0-9.4395-26.562z"/></svg>