<svg xmlns="http://www.w3.org/2000/svg" width="512" height="512" viewBox="0 0 512 512" fill="#fff"><path d="m256 32c-123.52 0-224 100.48-224 224s100.48 224 224 224 224-100.48 224-224-100.48-224-224-224zm-94.605 112.06a16 16 0 0 1 9.9199 4.625l84.686 84.686 84.686-84.686a16 16 0 0 1 7.1738-4.1406 16 16 0 0 1 15.455 4.1406 16 16 0 0 1 0 22.629l-84.686 84.686 84.686 84.686a16 16 0 0 1 0 22.629 16 16 0 0 1-22.629 0l-84.686-84.686-84.686 84.686a16 16 0 0 1-22.629 0 16 16 0 0 1 0-22.629l84.686-84.686-84.686-84.686a16 16 0 0 1 0-22.629 16 16 0 0 1 7.1738-4.1406 16 16 0 0 1 5.5352-0.48437z"/></svg>