<svg xmlns="http://www.w3.org/2000/svg" width="512" height="512" viewBox="0 0 512 512" fill="#fff"><path d="m256 32a16.002 16.002 0 0 0-4.1406 0.54492 16.002 16.002 0 0 0-7.1738 4.1406l-208 208a16.002 16.002 0 0 0 11.314 27.314h28.572v192a16.002 16.002 0 0 0 16 16h89.143a16.002 16.002 0 0 0 16-16v-133.71c0-7.8745 5.8384-13.715 13.713-13.715h89.145c7.8745 0 13.713 5.8404 13.713 13.715v133.71a16.002 16.002 0 0 0 16 16h89.143a16.002 16.002 0 0 0 16-16v-192h28.572a16.002 16.002 0 0 0 11.314-27.314l-208-208a16.002 16.002 0 0 0-11.314-4.6855z"/></svg>