<svg xmlns="http://www.w3.org/2000/svg" width="512" height="512" viewBox="0 0 512 512" fill="#fff"><path d="m256 32a16 16 0 0 0-16 16v48a16 16 0 0 0 16 16 16 16 0 0 0 16-16v-48a16 16 0 0 0-16-16zm-147.08 60.922a16 16 0 0 0-4.1406 0.54492 16 16 0 0 0-7.1738 4.1406 16 16 0 0 0 0 22.629l33.941 33.939a16 16 0 0 0 22.627 0 16 16 0 0 0 0-22.627l-33.939-33.941a16 16 0 0 0-11.314-4.6855zm294.16 0a16 16 0 0 0-4.1406 0.54492 16 16 0 0 0-7.1738 4.1406l-33.939 33.941a16 16 0 0 0 0 22.627 16 16 0 0 0 22.627 0l33.941-33.939a16 16 0 0 0 0-22.629 16 16 0 0 0-11.314-4.6855zm-147.08 51.078c-61.921 0-112 51.846-112 114.82v141.18a16 16 0 0 0-16 16 16 16 0 0 0 16 16h40v48h32v-48h80v48h32v-48h40a16 16 0 0 0 16-16 16 16 0 0 0-16-16v-141.18c0-62.979-50.079-114.82-112-114.82zm-208 96a16 16 0 0 0-16 16 16 16 0 0 0 16 16h48a16 16 0 0 0 16-16 16 16 0 0 0-16-16zm368 0a16 16 0 0 0-16 16 16 16 0 0 0 16 16h48a16 16 0 0 0 16-16 16 16 0 0 0-16-16z"/></svg>