<svg xmlns="http://www.w3.org/2000/svg" width="512" height="512" viewBox="0 0 512 512" fill="#fff"><path d="m256 32a16 16 0 0 0-16 16v48a16 16 0 0 0 16 16 16 16 0 0 0 16-16v-48a16 16 0 0 0-16-16zm-147.08 60.922a16 16 0 0 0-11.314 4.6855 16 16 0 0 0 0 22.629l33.941 33.939a16 16 0 0 0 22.627 0 16 16 0 0 0 0-22.627l-33.939-33.941a16 16 0 0 0-11.314-4.6855zm294.16 0a16 16 0 0 0-11.314 4.6855l-33.939 33.941a16 16 0 0 0 0 22.627 16 16 0 0 0 22.627 0l33.941-33.939a16 16 0 0 0 0-22.629 16 16 0 0 0-11.314-4.6855zm-147.08 51.078c-61.666 0-112 50.334-112 112s50.334 112 112 112 112-50.334 112-112-50.334-112-112-112zm-208 96a16 16 0 0 0-16 16 16 16 0 0 0 16 16h48a16 16 0 0 0 16-16 16 16 0 0 0-16-16zm368 0a16 16 0 0 0-16 16 16 16 0 0 0 16 16h48a16 16 0 0 0 16-16 16 16 0 0 0-16-16zm-273.14 113.14a16 16 0 0 0-11.314 4.6875l-33.941 33.939a16 16 0 0 0 0 22.629 16 16 0 0 0 22.629 0l33.939-33.941a16 16 0 0 0 0-22.627 16 16 0 0 0-11.312-4.6875zm226.27 0a16 16 0 0 0-11.312 4.6875 16 16 0 0 0 0 22.627l33.939 33.941a16 16 0 0 0 22.629 0 16 16 0 0 0 0-22.629l-33.941-33.939a16 16 0 0 0-11.314-4.6875zm-113.14 46.863a16 16 0 0 0-16 16v48a16 16 0 0 0 16 16 16 16 0 0 0 16-16v-48a16 16 0 0 0-16-16z"/></svg>