<svg xmlns="http://www.w3.org/2000/svg" width="512" height="512" viewBox="0 0 512 512" fill="#fff"><path d="m136 112a16 16 0 0 0-16 16v40h-72a16.002 16.002 0 0 0-16 16v144a16.002 16.002 0 0 0 16 16h72v40a16 16 0 0 0 16 16 16 16 0 0 0 16-16v-40h88v40a16 16 0 0 0 16 16 16 16 0 0 0 16-16v-40h88v40a16 16 0 0 0 16 16 16 16 0 0 0 16-16v-40h72a16.002 16.002 0 0 0 16-16v-144a16.002 16.002 0 0 0-16-16h-72v-40a16 16 0 0 0-16-16 16 16 0 0 0-16 16v40h-88v-40a16 16 0 0 0-16-16 16 16 0 0 0-16 16v40h-88v-40a16 16 0 0 0-16-16zm-24 112h32a16.002 16.002 0 0 1 16 16v32a16.002 16.002 0 0 1-16 16h-32a16.002 16.002 0 0 1-16-16v-32a16.002 16.002 0 0 1 16-16zm128 0h32a16.002 16.002 0 0 1 16 16v32a16.002 16.002 0 0 1-16 16h-32a16.002 16.002 0 0 1-16-16v-32a16.002 16.002 0 0 1 16-16zm128 0h32a16.002 16.002 0 0 1 16 16v32a16.002 16.002 0 0 1-16 16h-32a16.002 16.002 0 0 1-16-16v-32a16.002 16.002 0 0 1 16-16z"/></svg>