<svg xmlns="http://www.w3.org/2000/svg" width="512" height="512" viewBox="0 0 512 512" fill="#fff"><path d="m144 96a16 16 0 0 0-16 16v48h-80a16.002 16.002 0 0 0-16 16v160a16.002 16.002 0 0 0 16 16h80v48a16 16 0 0 0 16 16 16 16 0 0 0 16-16v-48h80v48a16 16 0 0 0 16 16 16 16 0 0 0 16-16v-48h80v48a16 16 0 0 0 16 16 16 16 0 0 0 16-16v-48h80a16.002 16.002 0 0 0 16-16v-160a16.002 16.002 0 0 0-16-16h-80v-48a16 16 0 0 0-16-16 16 16 0 0 0-16 16v48h-80v-48a16 16 0 0 0-16-16 16 16 0 0 0-16 16v48h-80v-48a16 16 0 0 0-16-16zm-16 128h32a16.002 16.002 0 0 1 16 16v32a16.002 16.002 0 0 1-16 16h-32a16.002 16.002 0 0 1-16-16v-32a16.002 16.002 0 0 1 16-16zm112 0h32a16.002 16.002 0 0 1 16 16v32a16.002 16.002 0 0 1-16 16h-32a16.002 16.002 0 0 1-16-16v-32a16.002 16.002 0 0 1 16-16zm112 0h32a16.002 16.002 0 0 1 16 16v32a16.002 16.002 0 0 1-16 16h-32a16.002 16.002 0 0 1-16-16v-32a16.002 16.002 0 0 1 16-16z"/></svg>