<svg xmlns="http://www.w3.org/2000/svg" width="512" height="512" viewBox="0 0 512 512" fill="#fff"><path d="m256 32c-123.52 0-224 100.48-224 224s100.48 224 224 224 224-100.48 224-224-100.48-224-224-224zm-64 112c8.864 0 16 7.136 16 16v80c0 17.863 14.137 32 32 32s32-14.137 32-32v-80c0-8.864 7.136-16 16-16s16 7.136 16 16v96c0 9.026 6.974 16 16 16a16 16 0 0 1 16 16 16 16 0 0 1-16 16c-14.601 0-27.768-6.6786-36.604-17.113-11.435 10.598-26.7 17.113-43.396 17.113-11.633 0-22.565-3.1736-32-8.6738v56.674c0 8.864-7.136 16-16 16s-16-7.136-16-16v-192c0-8.864 7.136-16 16-16zm160 32h32c8.864 0 16 7.136 16 16s-7.136 16-16 16h-32c-8.864 0-16-7.136-16-16s7.136-16 16-16z"/></svg>