<svg xmlns="http://www.w3.org/2000/svg" width="512" height="512" viewBox="0 0 512 512" fill="#fff"><path d="m256 32c-123.52 0-224 100.48-224 224s100.48 224 224 224a16.002 16.002 0 0 0 15.289-20.715s-5.2977-17.319-7.916-36.918c-1.3091-9.7992-1.8598-20.063-1.0078-28.145 0.85204-8.0818 3.2924-13.251 4.9492-14.908 6.5951-6.5951 14.005-8.494 26.057-7.8379 12.052 0.65613 27.437 4.7876 43.758 9.5352 16.321 4.7476 33.585 10.065 51.205 11.879 17.62 1.8139 36.706-0.22264 52.535-12.088 19.755-14.808 29.336-37.062 34.086-59.33 4.7495-22.268 5.045-45.411 5.0449-65.473 0-123.52-100.48-224-224-224zm-64 81.148a32 32 0 0 1 27.713 16 32 32 0 0 1-11.713 43.713 32 32 0 0 1-43.713-11.713 32 32 0 0 1 11.713-43.713 32 32 0 0 1 16-4.2871zm128 0a32 32 0 0 1 16 4.2871 32 32 0 0 1 11.713 43.713 32 32 0 0 1-43.713 11.713 32 32 0 0 1-11.713-43.713 32 32 0 0 1 27.713-16zm-192 110.85a32 32 0 0 1 32 32 32 32 0 0 1-32 32 32 32 0 0 1-32-32 32 32 0 0 1 32-32zm256 0a32 32 0 0 1 32 32 32 32 0 0 1-32 32 32 32 0 0 1-32-32 32 32 0 0 1 32-32z"/></svg>