<svg xmlns="http://www.w3.org/2000/svg" width="512" height="512" viewBox="0 0 512 512" fill="#fff"><path d="m48 32a16.002 16.002 0 0 0-16 16c0 114.56 45.524 224.46 126.53 305.47 81.008 81.008 190.91 126.53 305.47 126.53a16.002 16.002 0 0 0 16-16v-133.71a16.002 16.002 0 0 0-12.758-15.668l-112.02-23.178a16.002 16.002 0 0 0-14.557 4.3555l-68.613 68.611c-25.166-15.265-48.723-33.413-69.885-54.574-21.161-21.161-39.309-44.719-54.574-69.885l68.611-68.613a16.002 16.002 0 0 0 4.3555-14.557l-23.178-112.02a16.002 16.002 0 0 0-15.668-12.758z"/></svg>