<svg xmlns="http://www.w3.org/2000/svg" width="512" height="512" viewBox="0 0 512 512" fill="#fff"><path d="m374.35 68.461a16.002 16.002 0 0 0-14.682 7.9785l-56.344 97.592a16.002 16.002 0 0 0 3.6562 20.326c14.788 12.24 24.675 29.378 27.871 48.307a16.002 16.002 0 0 0 15.777 13.336h112.69a16.002 16.002 0 0 0 15.953-17.232c-5.2189-67.588-40.787-129.2-96.705-167.53a16.002 16.002 0 0 0-8.2207-2.7812zm-236.56 0.26562a16.002 16.002 0 0 0-8.2266 2.7949c-55.715 38.332-91.144 99.816-96.367 167.24a16.002 16.002 0 0 0 15.953 17.236h112.34a16.002 16.002 0 0 0 15.775-13.324c3.2053-18.89 13.077-35.992 27.83-48.217a16.002 16.002 0 0 0 3.6465-20.32l-56.254-97.436a16.002 16.002 0 0 0-14.697-7.9766zm118.21 139.27c-26.32 0-48 21.68-48 48s21.68 48 48 48 48-21.68 48-48-21.68-48-48-48zm-33.186 121.76a16.002 16.002 0 0 0-5.5332 0.92773 16.002 16.002 0 0 0-8.4844 7.0723l-56.369 97.635a16.002 16.002 0 0 0 6.9121 22.414c30.144 14.52 63.158 22.103 96.617 22.191a16.002 16.002 0 0 0 0.0859 0c33.459-0.088 66.473-7.6716 96.617-22.191a16.002 16.002 0 0 0 6.9121-22.414l-56.369-97.635a16.002 16.002 0 0 0-19.531-6.959c-8.8445 3.3556-18.213 5.1099-27.672 5.1934-9.4587-0.0835-18.827-1.8378-27.672-5.1934a16.002 16.002 0 0 0-5.5137-1.041z"/></svg>