<svg xmlns="http://www.w3.org/2000/svg" width="512" height="512" viewBox="0 0 512 512" fill="#fff"><path d="m272 32a16.002 16.002 0 0 0-16 15.998v32.002c-97.012 0-176 78.988-176 176 0 97.012 78.988 176 176 176s176-78.988 176-176a16 16 0 0 0-16-16 16 16 0 0 0-16 16c0 79.718-64.282 144-144 144s-144-64.282-144-144 64.282-144 144-144v32a16.002 16.002 0 0 0 24 13.857l83.141-48.002a16.002 16.002 0 0 0 0-27.713l-83.141-48a16.002 16.002 0 0 0-8-2.1426zm-16 160a16.002 16.002 0 0 0-14.311 8.8418l-48 96a16 16 0 0 0 7.1543 21.467 16 16 0 0 0 21.467-7.1543l7.5781-15.156h52.223l7.5781 15.156a16 16 0 0 0 21.467 7.1543 16 16 0 0 0 7.1543-21.467l-48-96a16.002 16.002 0 0 0-14.311-8.8418zm0 51.775 10.111 20.223h-20.223l10.111-20.223z"/></svg>