<svg xmlns="http://www.w3.org/2000/svg" width="512" height="512" viewBox="0 0 512 512" fill="#fff"><path d="m192 32a16.002 16.002 0 0 0-11.314 4.6855l-96 96a16.002 16.002 0 0 0-4.6855 11.314v288c0 26.315 21.685 48 48 48h256c26.315 0 48-21.685 48-48v-352c0-26.315-21.685-48-48-48zm0 32a16 16 0 0 1 16 16v96a16 16 0 0 1-16 16 16 16 0 0 1-16-16v-96a16 16 0 0 1 16-16zm64 0a16 16 0 0 1 16 16v96a16 16 0 0 1-16 16 16 16 0 0 1-16-16v-96a16 16 0 0 1 16-16zm64 0a16 16 0 0 1 16 16v96a16 16 0 0 1-16 16 16 16 0 0 1-16-16v-96a16 16 0 0 1 16-16zm64 0a16 16 0 0 1 16 16v96a16 16 0 0 1-16 16 16 16 0 0 1-16-16v-96a16 16 0 0 1 16-16zm-256 64a16 16 0 0 1 16 16v32a16 16 0 0 1-16 16 16 16 0 0 1-16-16v-32a16 16 0 0 1 16-16z"/></svg>