<svg xmlns="http://www.w3.org/2000/svg" width="512" height="512" viewBox="0 0 512 512" fill="#fff"><path d="m80 32c-26.315 0-48 21.685-48 48v64a16.002 16.002 0 0 0 16 16h416a16.002 16.002 0 0 0 16-16v-64c0-26.315-21.685-48-48-48h-352zm16 32a32 32 0 0 1 32 32 32 32 0 0 1-32 32 32 32 0 0 1-32-32 32 32 0 0 1 32-32zm-48 128a16.002 16.002 0 0 0-16 16v96a16.002 16.002 0 0 0 16 16h416a16.002 16.002 0 0 0 16-16v-96a16.002 16.002 0 0 0-16-16h-416zm48 32a32 32 0 0 1 32 32 32 32 0 0 1-32 32 32 32 0 0 1-32-32 32 32 0 0 1 32-32zm-48 128a16.002 16.002 0 0 0-16 16v64c0 26.315 21.685 48 48 48h352c26.315 0 48-21.685 48-48v-64a16.002 16.002 0 0 0-16-16h-416zm48 32a32 32 0 0 1 32 32 32 32 0 0 1-32 32 32 32 0 0 1-32-32 32 32 0 0 1 32-32z"/></svg>