<svg xmlns="http://www.w3.org/2000/svg" width="512" height="512" viewBox="0 0 512 512" fill="#fff"><path d="m368 128a16 16 0 0 0-16 16 16 16 0 0 0 16 16h57.371l-68.686 68.686a16.002 16.002 0 0 0 11.314 27.314h96a16 16 0 0 0 16-16 16 16 0 0 0-16-16h-57.371l68.686-68.686a16.002 16.002 0 0 0-11.314-27.314h-96zm-160 64a16 16 0 0 0-16 16 16 16 0 0 0 16 16h57.371l-68.686 68.686a16.002 16.002 0 0 0 11.314 27.314h96a16 16 0 0 0 16-16 16 16 0 0 0-16-16h-57.371l68.686-68.686a16.002 16.002 0 0 0-11.314-27.314h-96zm-160 64a16 16 0 0 0-16 16 16 16 0 0 0 16 16h57.371l-68.686 68.686a16.002 16.002 0 0 0 11.314 27.314h96a16 16 0 0 0 16-16 16 16 0 0 0-16-16h-57.371l68.686-68.686a16.002 16.002 0 0 0-11.314-27.314h-96z"/></svg>