<svg xmlns="http://www.w3.org/2000/svg" width="512" height="512" viewBox="0 0 512 512" fill="#fff"><path d="m256 128.57a16 16 0 0 0-16 16v48a16 16 0 0 0 16 16 16 16 0 0 0 16-16v-48a16 16 0 0 0-16-16zm-147.08 60.922a16 16 0 0 0-4.1406 0.54493 16 16 0 0 0-7.1738 4.1406 16 16 0 0 0 0 22.629l33.941 33.941a16 16 0 0 0 22.627 0 16 16 0 0 0 0-22.629l-33.939-33.941a16 16 0 0 0-11.314-4.6856zm294.16 0a16 16 0 0 0-4.1406 0.54493 16 16 0 0 0-7.1738 4.1406l-33.939 33.941a16 16 0 0 0 0 22.629 16 16 0 0 0 22.627 0l33.941-33.941a16 16 0 0 0 0-22.629 16 16 0 0 0-11.314-4.6856zm-355.08 97.941a16.002 16.002 0 0 0-16 16v64a16.002 16.002 0 0 0 16 16h416a16.002 16.002 0 0 0 16-16v-64a16.002 16.002 0 0 0-16-16z"/></svg>