<svg xmlns="http://www.w3.org/2000/svg" width="512" height="512" viewBox="0 0 512 512" fill="#fff"><path d="m254.35 112.09a16.002 16.002 0 0 0-8.1758 3.2852l-67.668 52.629h-66.51a16.002 16.002 0 0 0-16 16v144a16.002 16.002 0 0 0 16 16h66.51l67.668 52.629a16.002 16.002 0 0 0 25.822-12.629v-256a16.002 16.002 0 0 0-17.646-15.914zm67.604 9.3984a16 16 0 0 0-4.1777 0.0352 16 16 0 0 0-12.611 9.8457 16 16 0 0 0 8.832 20.832c42.338 17.127 69.983 58.116 70 103.79-0.11333 45.583-27.742 86.455-70 103.55a16 16 0 0 0-8.832 20.832 16 16 0 0 0 20.832 8.832c54.24-21.941 89.865-74.649 90-133.16a16.002 16.002 0 0 0 0-2e-3 16.002 16.002 0 0 0 0-2e-3 16.002 16.002 0 0 0 0-2e-3 16.002 16.002 0 0 0 0-2e-3 16.002 16.002 0 0 0 0-2e-3 16.002 16.002 0 0 0 0-2e-3 16.002 16.002 0 0 0 0-2e-3 16.002 16.002 0 0 0 0-2e-3 16.002 16.002 0 0 0 0-2e-3 16.002 16.002 0 0 0 0-2e-3 16.002 16.002 0 0 0 0-2e-3 16.002 16.002 0 0 0 0-2e-3 16.002 16.002 0 0 0 0-2e-3 16.002 16.002 0 0 0 0-2e-3 16.002 16.002 0 0 0 0-2e-3 16.002 16.002 0 0 0 0-2e-3 16.002 16.002 0 0 0 0-2e-3 16.002 16.002 0 0 0 0-2e-3 16.002 16.002 0 0 0 0-2e-3 16.002 16.002 0 0 0 0-2e-3 16.002 16.002 0 0 0 0-2e-3 16.002 16.002 0 0 0 0-2e-3c-0.01124-58.618-35.658-111.48-90-133.46a16 16 0 0 0-4.043-1.0488zm-1.6914 76.211a16.002 16.002 0 0 0-16.266 15.996v84.586a16.002 16.002 0 0 0 28 10.584c12.87-14.593 19.983-33.39 20-52.848a16.002 16.002 0 0 0 0-2e-3 16.002 16.002 0 0 0 0-2e-3 16.002 16.002 0 0 0 0-2e-3 16.002 16.002 0 0 0 0-2e-3 16.002 16.002 0 0 0 0-2e-3 16.002 16.002 0 0 0 0-2e-3 16.002 16.002 0 0 0 0-2e-3 16.002 16.002 0 0 0 0-2e-3 16.002 16.002 0 0 0 0-2e-3 16.002 16.002 0 0 0 0-2e-3c-7e-3 -19.471-7.121-38.281-20-52.885a16.002 16.002 0 0 0-8.1445-4.9453 16.002 16.002 0 0 0-3.5898-0.46875z"/></svg>