<svg xmlns="http://www.w3.org/2000/svg" width="512" height="512" viewBox="0 0 512 512" fill="#fff"><path d="m254.35 112.09a16.002 16.002 0 0 0-8.1758 3.2852l-67.668 52.629h-66.51a16.002 16.002 0 0 0-16 16v144a16.002 16.002 0 0 0 16 16h66.51l67.668 52.629a16.002 16.002 0 0 0 25.822-12.629v-256a16.002 16.002 0 0 0-17.646-15.914zm65.912 85.609a16.002 16.002 0 0 0-16.266 15.996v84.586a16.002 16.002 0 0 0 28 10.584c12.87-14.593 19.983-33.39 20-52.848a16.002 16.002 0 0 0 0-2e-3 16.002 16.002 0 0 0 0-2e-3 16.002 16.002 0 0 0 0-2e-3 16.002 16.002 0 0 0 0-2e-3 16.002 16.002 0 0 0 0-2e-3 16.002 16.002 0 0 0 0-2e-3 16.002 16.002 0 0 0 0-2e-3 16.002 16.002 0 0 0 0-2e-3 16.002 16.002 0 0 0 0-2e-3 16.002 16.002 0 0 0 0-2e-3c-7e-3 -19.471-7.121-38.281-20-52.885a16.002 16.002 0 0 0-8.1445-4.9453 16.002 16.002 0 0 0-3.5898-0.46875z"/></svg>