<svg xmlns="http://www.w3.org/2000/svg" width="512" height="512" viewBox="0 0 512 512" fill="#fff"><path d="m256 32c-35.157 0-64 28.843-64 64 0 11.629 3.1558 22.568 8.6523 32h-78.367a16.002 16.002 0 0 0-15.586 12.383l-74.285 320a16.002 16.002 0 0 0 15.586 19.617h416a16.002 16.002 0 0 0 15.586-19.617l-74.285-320a16.002 16.002 0 0 0-15.586-12.383h-78.367c5.4965-9.4322 8.6523-20.371 8.6523-32 0-35.157-28.843-64-64-64zm0 32c17.863 0 32 14.137 32 32 0 17.863-14.137 32-32 32s-32-14.137-32-32c0-17.863 14.137-32 32-32z"/></svg>