<svg xmlns="http://www.w3.org/2000/svg" width="512" height="512" viewBox="0 0 512 512" fill="#fff"><path d="m256 32c-35.157 0-64 28.843-64 64 0 11.629 3.1558 22.568 8.6523 32h-78.176c-24.724 0-46.126 18.152-49.529 42.619l-36.49 262.35c-3.4421 24.748 16.589 47.029 41.512 47.029h356.06c24.923 0 44.954-22.281 41.512-47.029l-36.49-262.35c-3.4031-24.467-24.805-42.619-49.529-42.619h-78.176c5.4965-9.4322 8.6523-20.371 8.6523-32 0-35.157-28.843-64-64-64zm0 32c17.863 0 32 14.137 32 32 0 17.863-14.137 32-32 32-17.863 0-32-14.137-32-32 0-17.863 14.137-32 32-32z"/></svg>