<svg xmlns="http://www.w3.org/2000/svg" width="512" height="512" viewBox="0 0 512 512" fill="#fff"><path d="m43.859 32.545a16 16 0 0 0-7.1738 4.1406 16 16 0 0 0 0 22.629l416 416a16 16 0 0 0 22.629 0 16 16 0 0 0 0-22.629l-416-416a16 16 0 0 0-15.455-4.1406zm212.04 61.828c-27.912 0.037448-55.338 4.2477-81.553 12.092l199.69 199.69 94.428-94.428a16.002 16.002 0 0 0 0.61328-21.979c-54.239-60.66-131.77-95.352-213.15-95.367a16.002 16.002 0 0 0-0.02539 0l0.00195-0.003906zm-171.73 57.684c-14.825 11.174-28.684 23.786-41.244 37.857a16.002 16.002 0 0 0 0.62109 21.969l201.06 201.06a16.002 16.002 0 0 0 22.629 0l38.91-38.91-221.98-221.98z"/></svg>