<svg width="900" height="200" version="1.1" viewBox="0 0 900 200" xmlns="http://www.w3.org/2000/svg" xmlns:xlink="http://www.w3.org/1999/xlink"><defs><linearGradient id="b" x1="131.8" x2="768.2" y1="-218.2" y2="418.2" gradientUnits="userSpaceOnUse"><stop stop-color="#ffe747" offset="0"/><stop stop-color="#ff533b" offset=".65"/></linearGradient><mask id="a" maskUnits="userSpaceOnUse"><path d="m0 0v200h900v-200zm5 5h890v190h-890zm57.381 37.666a1.7145 1.7145 0 0 0-1.6953 1.4531l-0.99609 6.4746c-1.2301 0.5285-2.3922 1.195-3.4707 1.9883l-6.0879-2.3672a1.7145 1.7145 0 0 0-2.1055 0.74023l-4.2871 7.4219a1.7145 1.7145 0 0 0 0.41211 2.1953l5.0918 4.0859c-0.0822 0.66096-0.14179 1.3236-0.14844 1.9902a1.7145 1.7145 0 0 0 0 0.03516c7e-3 0.66659 0.0662 1.3293 0.14844 1.9902l-5.0918 4.0859a1.7145 1.7145 0 0 0-0.41211 2.1953l4.2871 7.4219a1.7145 1.7145 0 0 0 2.1055 0.74024l6.0879-2.3672c1.0785 0.79323 2.2407 1.4597 3.4707 1.9883l0.99609 6.4746a1.7145 1.7145 0 0 0 1.6953 1.4531h8.5703a1.7145 1.7145 0 0 0 1.6953-1.4531l0.99609-6.4746c1.2301-0.5285 2.3922-1.195 3.4707-1.9883l6.0879 2.3672a1.7145 1.7145 0 0 0 2.1055-0.74024l4.2871-7.4219a1.7145 1.7145 0 0 0-0.41211-2.1953l-5.0918-4.0859c0.0822-0.66096 0.14179-1.3236 0.14844-1.9902a1.7145 1.7145 0 0 0 0-2e-3 1.7145 1.7145 0 0 0 0-2e-3 1.7145 1.7145 0 0 0 0-2e-3 1.7145 1.7145 0 0 0 0-2e-3 1.7145 1.7145 0 0 0 0-2e-3 1.7145 1.7145 0 0 0 0-2e-3 1.7145 1.7145 0 0 0 0-2e-3 1.7145 1.7145 0 0 0 0-2e-3 1.7145 1.7145 0 0 0 0-2e-3 1.7145 1.7145 0 0 0 0-2e-3 1.7145 1.7145 0 0 0 0-2e-3c-1e-3 -0.67459-0.05622-1.3462-0.13476-2.0156l5.0781-4.0742a1.7145 1.7145 0 0 0 0.41211-2.1953l-4.2871-7.4219a1.7145 1.7145 0 0 0-2.1055-0.74023l-6.0684 2.3594c-1.0847-0.80598-2.2559-1.4826-3.4961-2.0195l-0.99024-6.4355a1.7145 1.7145 0 0 0-1.6953-1.4531zm118.76 0c-2.8194 0-5.1426 2.3231-5.1426 5.1426v20.572c0 2.8194 2.3232 5.1426 5.1426 5.1426h18.441l-11.791-11.793c-1.98-1.9797-1.98-5.2937 0-7.2734 0.63834-0.63821 1.4328-1.0966 2.3047-1.3301 0.44216-0.11844 0.89257-0.17518 1.3398-0.17383 1.3424 4e-3 2.6554 0.53244 3.627 1.5039a3.4289 3.4289 0 0 0 0 2e-3l11.793 11.791v-18.441c0-2.8194-2.3232-5.1426-5.1426-5.1426zm147.05 0c-0.94972 0-1.7129 0.76512-1.7129 1.7148v0.85742h-11.143a1.7143 1.7143 0 0 0-1.7148 1.7129 1.7143 1.7143 0 0 0 1.7148 1.7148h0.85547v36.857c0 2.8195 2.3251 5.1426 5.1445 5.1426h24c2.8195 0 5.1426-2.3231 5.1426-5.1426v-36.857h0.85742a1.7143 1.7143 0 0 0 1.7129-1.7148 1.7143 1.7143 0 0 0-1.7129-1.7129h-11.145v-0.85742c0-0.94972-0.76317-1.7148-1.7129-1.7148zm138.46 6.1348c-8.9902 0.0121-17.553 3.8538-23.539 10.561a1.7687 1.7687 0 0 0 0.0684 2.4277l22.223 22.223a1.7687 1.7687 0 0 0 2.502 0l22.24-22.24a1.7687 1.7687 0 0 0 0.0684-2.4297c-5.9951-6.7046-14.566-10.539-23.561-10.541a1.7687 1.7687 0 0 0-2e-3 0zm2e-3 3.5371h4e-3c7.4296 0.0022 14.525 2.9496 19.766 8.1523l-7.5039 7.5039c-3.2546-3.2161-7.6557-5.0433-12.264-5.0449a1.7687 1.7687 0 0 0-2e-3 0c-4.6086 0.0022-9.0111 1.8306-12.266 5.0469l-7.4863-7.4883c5.234-5.2053 12.324-8.1592 19.752-8.1699zm-138.47 1.4707a1.7143 1.7143 0 0 1 1.7148 1.7148v24.857a1.7143 1.7143 0 0 1-1.7148 1.7129 1.7143 1.7143 0 0 1-1.7129-1.7129v-24.857a1.7143 1.7143 0 0 1 1.7129-1.7148zm10.287 0a1.7143 1.7143 0 0 1 1.7129 1.7148v24.857a1.7143 1.7143 0 0 1-1.7129 1.7129 1.7143 1.7143 0 0 1-1.7148-1.7129v-24.857a1.7143 1.7143 0 0 1 1.7148-1.7148zm-146.9 2.5781a1.7143 1.7143 0 0 0-0.59374 0.05273 1.7143 1.7143 0 0 0-0.76758 0.44336 1.7143 1.7143 0 0 0 0 2.4238l15.012 15.012-1.2988 1.2988a1.7145 1.7145 0 0 0 0.76953 2.8672l6.8574 1.8379a1.7145 1.7145 0 0 0 2.0996-2.0996l-1.8379-6.8574a1.7145 1.7145 0 0 0-1.7207-1.2695 1.7145 1.7145 0 0 0-0.37891 0.05664 1.7145 1.7145 0 0 0-0.76953 0.44336l-1.2969 1.2988-15.012-15.012a1.7143 1.7143 0 0 0-1.0625-0.49609zm-124.91 2.5645c4.2402 0 7.7148 3.4747 7.7148 7.7148s-3.4747 7.7148-7.7148 7.7148c-4.2402 0-7.7148-3.4747-7.7148-7.7148s3.4747-7.7148 7.7148-7.7148zm143.62 0.85742v3.4297h5.1426v-3.4297zm8.5723 0v3.4297c0.97935 0 1.7148 0.73354 1.7148 1.7129h3.4277c0-2.8194-2.3232-5.1426-5.1426-5.1426zm1.7148 8.5723v5.1426h3.4277v-5.1426zm-27.43 8.5703v5.1426h3.4297v-5.1426zm27.43 0v5.1426h3.4277v-5.1426zm-27.43 8.5723c0 2.8194 2.3232 5.1426 5.1426 5.1426v-3.4277c-0.97935 0-1.7129-0.73549-1.7129-1.7148zm27.43 0c0 0.97935-0.7355 1.7148-1.7148 1.7148v3.4277c2.8194 0 5.1426-2.3231 5.1426-5.1426zm-18.857 1.7148v3.4277h5.1426v-3.4277zm8.5703 0v3.4277h5.1426v-3.4277zm-72.666 22.094-8.5723 2e-3a1.7145 1.7145 0 0 0-1.6934 1.4531l-0.9961 6.4746c-1.2301 0.5285-2.3942 1.193-3.4726 1.9863l-6.0879-2.3672a1.7145 1.7145 0 0 0-2.1055 0.74023l-4.2852 7.4238a1.7145 1.7145 0 0 0 0.41211 2.1934l5.0918 4.0859c-0.0822 0.66097-0.14179 1.3256-0.14844 1.9922a1.7145 1.7145 0 0 0 0 0.0332c7e-3 0.6666 0.0662 1.3312 0.14844 1.9922l-5.0918 4.0859a1.7145 1.7145 0 0 0-0.41211 2.1934l4.2852 7.4238a1.7145 1.7145 0 0 0 2.1055 0.74024l6.0879-2.3672c1.0785 0.79323 2.2426 1.4578 3.4726 1.9863l0.9961 6.4746a1.7145 1.7145 0 0 0 1.6934 1.4551h8.5723a1.7145 1.7145 0 0 0 1.6934-1.4551l0.99609-6.4746c1.2301-0.5285 2.3942-1.193 3.4727-1.9863l6.0879 2.3672a1.7145 1.7145 0 0 0 2.1055-0.74024l4.2852-7.4238a1.7145 1.7145 0 0 0-0.41211-2.1934l-5.0918-4.0859c0.0822-0.66098 0.14179-1.3256 0.14844-1.9922a1.7145 1.7145 0 0 0 0-2e-3 1.7145 1.7145 0 0 0 0-2e-3 1.7145 1.7145 0 0 0 0-2e-3 1.7145 1.7145 0 0 0 0-2e-3 1.7145 1.7145 0 0 0 0-2e-3 1.7145 1.7145 0 0 0 0-2e-3 1.7145 1.7145 0 0 0 0-2e-3 1.7145 1.7145 0 0 0 0-2e-3 1.7145 1.7145 0 0 0 0-2e-3 1.7145 1.7145 0 0 0 0-2e-3c-1e-3 -0.67459-0.0562-1.3462-0.13477-2.0156l5.0781-4.0762a1.7145 1.7145 0 0 0 0.41211-2.1934l-4.2852-7.4238a1.7145 1.7145 0 0 0-2.1055-0.74023l-6.0703 2.3613c-1.0847-0.80598-2.2559-1.4846-3.4961-2.0215l-0.99023-6.4336a1.7145 1.7145 0 0 0-1.6934-1.4551zm110.19 2e-3c-2.8194 0-5.1426 2.3231-5.1426 5.1426v20.57c0 2.8194 2.3231 5.1445 5.1426 5.1445h18.441l-3.4277-3.4297h-15.014c-0.97935 0-1.7148-0.73549-1.7148-1.7148v-20.57c0-0.97935 0.73549-1.7148 1.7148-1.7148h20.572c0.97935 0 1.7129 0.73549 1.7129 1.7148v15.012l3.4297 3.4297v-18.441c0-2.8194-2.3232-5.1426-5.1426-5.1426zm147.05 0c-0.94972 0-1.7148 0.76317-1.7148 1.7129v0.85742h-11.143a1.7143 1.7143 0 0 0-1.7148 1.7148 1.7143 1.7143 0 0 0 1.7148 1.7148h0.85742v36.855c0 2.8195 2.3231 5.1445 5.1426 5.1445h24c2.8195 0 5.1426-2.3251 5.1426-5.1445v-36.856h0.85742a1.7143 1.7143 0 0 0 1.7148-1.7148 1.7143 1.7143 0 0 0-1.7148-1.7148h-11.143v-0.85742c0-0.94972-0.76512-1.7129-1.7148-1.7129zm-264.34 3.4277h5.6309l0.91211 5.9336a1.7145 1.7145 0 0 0 1.1074 1.3496c1.55 0.56455 2.9904 1.3963 4.2539 2.457a1.7145 1.7145 0 0 0 1.7226 0.28321l5.5957-2.1758 2.8164 4.877-4.6856 3.7578a1.7145 1.7145 0 0 0-0.61328 1.6367c0.14361 0.80666 0.21476 1.626 0.2168 2.4453-9e-3 0.8156-0.0875 1.6277-0.23633 2.4297a1.7145 1.7145 0 0 0 0.61328 1.6504l4.7051 3.7754-2.8164 4.875-5.6094-2.1816a1.7145 1.7145 0 0 0-1.7168 0.2793c-1.2606 1.047-2.693 1.8656-4.2344 2.4219a1.7145 1.7145 0 0 0-1.1113 1.3516l-0.91992 5.9766h-5.6309l-0.91797-5.9766a1.7145 1.7145 0 0 0-1.1133-1.3516c-1.5414-0.55628-2.9738-1.375-4.2344-2.4219a1.7145 1.7145 0 0 0-1.7168-0.2793l-5.6094 2.1816-2.8144-4.875 4.7031-3.7754a1.7145 1.7145 0 0 0 0.61328-1.6504c-0.14839-0.79935-0.22721-1.609-0.23632-2.4219 9e-3 -0.81294 0.088-1.6245 0.23632-2.4238a1.7145 1.7145 0 0 0-0.61328-1.6504l-4.7031-3.7734 2.8144-4.877 5.6094 2.1816a1.7145 1.7145 0 0 0 1.7168-0.2793c1.2606-1.047 2.693-1.8656 4.2344-2.4219a1.7145 1.7145 0 0 0 1.1133-1.3516zm255.77 2.5723h27.43v36.855c0 0.97936-0.73548 1.7148-1.7148 1.7148h-24c-0.97937 0-1.7148-0.73549-1.7148-1.7148zm147.04 0.13477c-8.9902 0.0121-17.553 3.8538-23.539 10.561a1.7687 1.7687 0 0 0 0.0703 2.4277l22.223 22.223a1.7687 1.7687 0 0 0 2.5 0l22.24-22.24a1.7687 1.7687 0 0 0 0.0684-2.4297c-5.995-6.7046-14.564-10.539-23.559-10.541a1.7687 1.7687 0 0 0-4e-3 0zm2e-3 3.5371h4e-3c7.4296 2e-3 14.527 2.9496 19.768 8.1523l-7.5059 7.5039c-3.2545-3.2161-7.6555-5.0452-12.264-5.0469a1.7687 1.7687 0 0 0-2e-3 0c-4.6086 2e-3 -9.0092 1.8306-12.264 5.0469l-7.4883-7.4863c5.234-5.2053 12.324-8.1592 19.752-8.1699zm-138.46 1.4707a1.7143 1.7143 0 0 0-1.7148 1.7129v24.857a1.7143 1.7143 0 0 0 1.7148 1.7148 1.7143 1.7143 0 0 0 1.7148-1.7148v-24.857a1.7143 1.7143 0 0 0-1.7148-1.7129zm10.285 0a1.7143 1.7143 0 0 0-1.7148 1.7129v24.857a1.7143 1.7143 0 0 0 1.7148 1.7148 1.7143 1.7143 0 0 0 1.7148-1.7148v-24.857a1.7143 1.7143 0 0 0-1.7148-1.7129zm-146.9 2.5781a1.7143 1.7143 0 0 0-0.59375 0.0508 1.7143 1.7143 0 0 0-0.76758 0.44336 1.7143 1.7143 0 0 0 0 2.4258l15.012 15.012-1.2988 1.2969a1.7145 1.7145 0 0 0 0.76953 2.8691l6.8574 1.8359a1.7145 1.7145 0 0 0 2.0996-2.0996l-1.8379-6.8555a1.7145 1.7145 0 0 0-1.7207-1.2695 1.7145 1.7145 0 0 0-0.3789 0.0566 1.7145 1.7145 0 0 0-0.76954 0.44336l-1.2969 1.2969-15.012-15.012a1.7143 1.7143 0 0 0-1.0625-0.49414zm-124.91 2.5644c-4.2402 0-7.7129 3.4747-7.7129 7.7148 0 4.2402 3.4727 7.7129 7.7129 7.7129 4.2402 0 7.7148-3.4727 7.7148-7.7129 0-4.2402-3.4747-7.7148-7.7148-7.7148zm143.62 0.85742v3.4277h5.1426v-3.4277zm8.5723 0v3.4277c0.97935 0 1.7148 0.73549 1.7148 1.7148h3.4277c0-2.8194-2.3232-5.1426-5.1426-5.1426zm-152.19 2.5703c2.3872 0 4.2871 1.8998 4.2871 4.2871s-1.8999 4.2852-4.2871 4.2852c-2.3872 0-4.2852-1.8979-4.2852-4.2852 0-2.3872 1.8979-4.2871 4.2852-4.2871zm399.99 4.1055c3.6701 1e-3 7.1711 1.4532 9.7656 4.0098l-9.7637 9.7656-9.7656-9.7637c2.5938-2.5564 6.0944-4.0096 9.7637-4.0117zm-246.08 1.8945v5.1426h3.4277v-5.1426zm-27.43 8.5723v5.1426h3.4297v-5.1426zm27.43 0v5.1426h3.4277v-5.1426zm-27.43 8.5703c0 2.8194 2.3232 5.1426 5.1426 5.1426v-3.4277c-0.97935 0-1.7129-0.7355-1.7129-1.7148zm27.43 0c0 0.97935-0.73549 1.7148-1.7148 1.7148v3.4277c2.8194 0 5.1426-2.3231 5.1426-5.1426zm-18.857 1.7148v3.4277h5.1426v-3.4277zm8.5703 0v3.4277h5.1426v-3.4277z" fill="#fff" stroke-width=".10714"/></mask></defs><path d="m0 0h900v200h-900z" fill="#1a1707" stop-color="#000000"/><path d="m707.88 30.367c-4.1529 0-7.4813 1.0969-9.9844 3.2871-2.5031 2.1902-3.7539 4.9203-3.7539 8.1914 0 1.7636 0.5673 3.1576 1.7051 4.1816 1.1378 0.99556 2.9724 1.7478 5.5039 2.2598l4.1816 0.85352c1.9342 0.39822 3.2722 0.85323 4.0117 1.3652 0.73955 0.512 1.1094 1.2662 1.1094 2.2617 0 1.4222-0.66897 2.5753-2.0059 3.457-1.3084 0.85333-3.0724 1.2793-5.291 1.2793-1.9342 0-3.4406-0.32625-4.5215-0.98047-1.0524-0.68267-1.5801-1.6363-1.5801-2.8594 0-0.14222 0.02907-0.46847 0.08594-0.98047h-6.2285c-0.11378 0.768-0.17187 1.3934-0.17187 1.877 0 0.99556 0.17038 1.9472 0.51172 2.8574 0.36978 0.91022 0.95356 1.8077 1.75 2.6895 0.79644 0.85333 1.9766 1.5349 3.541 2.0469 1.5929 0.54044 3.4856 0.81055 5.6758 0.81055 2.2187 0 4.2091-0.28463 5.9726-0.85352 1.7636-0.56889 3.1722-1.2795 4.2246-2.1328s1.9189-1.8486 2.6016-2.9863c0.68267-1.1378 1.1522-2.2182 1.4082-3.2422s0.38476-2.0483 0.38476-3.0723c0-1.6498-0.56925-3.0148-1.707-4.0957-1.1378-1.0809-2.802-1.8351-4.9922-2.2617l-4.6504-0.93945c-2.0196-0.39822-3.3846-0.80966-4.0957-1.2363-0.71111-0.45511-1.0664-1.0805-1.0664-1.877 0-1.3653 0.55473-2.4477 1.6641-3.2441 1.1378-0.79644 2.6732-1.1934 4.6074-1.1934 3.7547 0 5.6309 1.1801 5.6309 3.541 0 0.14222-0.02712 0.46847-0.08399 0.98047h5.9727c0.22756-1.0524 0.3418-1.9334 0.3418-2.6445 0-2.304-0.9536-4.097-2.8594-5.377-1.8773-1.3084-4.5077-1.9629-7.8926-1.9629zm50.432 0.51367c-2.0764 0-3.7116 0.46758-4.9062 1.4062-1.1662 0.91022-1.964 2.3624-2.3906 4.3535l-0.5957 2.7734h-3.2442l-0.85351 3.9668h3.2871l-3.9688 18.604h5.9726l3.9688-18.604h3.498l0.85352-3.9668h-3.541l0.51172-2.2617c0.28444-1.2231 0.93888-1.8359 1.9629-1.8359 0.17067 0 0.76897 0.058098 1.793 0.17188l0.9375-4.4805c-1.792-0.085333-2.8869-0.12695-3.2852-0.12695zm7.3809 2.3457-1.3223 6.1875h-2.9434l-0.85352 3.9668h2.9434l-2.9863 14.166c-0.14222 0.65422-0.21289 1.238-0.21289 1.75 0 1.1662 0.41144 2.0617 1.2363 2.6875 0.82489 0.65422 2.0195 0.98047 3.584 0.98047 1.3084 0 2.5176-0.15586 3.627-0.46875l0.85351-4.1816c-0.59733 0.085333-1.0669 0.12891-1.4082 0.12891-1.0809 0-1.6211-0.3553-1.6211-1.0664 0-0.22756 0.08519-0.71162 0.25586-1.4512l2.6445-12.545h3.3281l0.85352-3.9668h-3.3281l1.3242-6.1875h-5.9746zm-31.914 5.334c-4.2098 0-7.6234 1.5499-10.24 4.6504-2.5884 3.072-3.8828 6.8118-3.8828 11.221 0 2.5884 0.83936 4.666 2.5176 6.2305 1.6782 1.536 3.9262 2.3027 6.7422 2.3027 4.2382 0 7.6789-1.5209 10.324-4.5645s3.9688-6.8124 3.9688-11.307c0-2.6453-0.83935-4.7229-2.5176-6.2305-1.6782-1.536-3.9823-2.3027-6.9121-2.3027zm85.248 0c-3.3564 0-5.9452 0.63992-7.7656 1.9199-1.792 1.2516-2.9866 3.271-3.584 6.0586h5.5898c0.36977-1.1662 0.90998-1.9911 1.6211-2.4746 0.73957-0.48356 1.7909-0.72656 3.1563-0.72656 2.0764 0 3.1152 0.61282 3.1152 1.8359 0 0.28444-0.04162 0.55455-0.12695 0.81055-0.0569 0.22756-0.17113 0.43956-0.3418 0.63867-0.14222 0.19911-0.29808 0.37145-0.46875 0.51367-0.14222 0.14222-0.35618 0.26903-0.64063 0.38281-0.28444 0.085334-0.51292 0.17053-0.68359 0.25586-0.17067 0.056889-0.44077 0.12951-0.81055 0.21484-0.34133 0.056887-0.59691 0.098507-0.76757 0.12695-0.17067 0.028446-0.44078 0.072019-0.81055 0.12891-0.36978 0.02844-0.61083 0.055537-0.72461 0.083984l-2.4746 0.38477c-1.3938 0.22756-2.632 0.63899-3.7129 1.2363-1.0809 0.56889-1.9202 1.1817-2.5176 1.8359-0.59733 0.65422-1.094 1.3648-1.4922 2.1328-0.36978 0.768-0.61279 1.437-0.72656 2.0059-0.11378 0.54044-0.16992 1.0245-0.16992 1.4512 0 1.6782 0.58377 3.0287 1.75 4.0527 1.1662 1.024 2.7016 1.5352 4.6074 1.5352 2.304 0 4.6788-1.0949 7.125-3.2852-0.08533 0.42667-0.12891 0.81101-0.1289 1.1523 0 0.34133 0.09972 0.72568 0.29882 1.1523h6.5293l0.16992-0.72656c-0.59733-0.68267-0.89648-1.3226-0.89648-1.9199 0-0.256 0.04357-0.5532 0.1289-0.89453l2.6875-12.801c0.17067-0.768 0.25586-1.4079 0.25586-1.9199 0-0.59733-0.11423-1.1666-0.34179-1.707s-0.60995-1.0806-1.1504-1.6211c-0.54044-0.56889-1.3943-1.0094-2.5606-1.3223-1.1378-0.34133-2.5173-0.51172-4.1387-0.51172zm26.879 0c-1.3653 0-2.7013 0.42596-4.0098 1.2793-1.3084 0.85333-2.4595 2.0625-3.4551 3.627l0.98047-4.5234h-5.9727l-4.9082 23.041h5.9746l2.6016-12.246c0.73956-3.4987 2.8733-5.248 6.4004-5.248 0.54044 0 1.1533 0.058098 1.8359 0.17188l1.2793-6.0586c-0.22756-0.028447-0.47057-0.042969-0.72657-0.042969zm12.715 0c-1.8204 0-3.4701 0.2972-4.9492 0.89453-1.4791 0.59733-2.6883 1.3951-3.627 2.3906-0.93867 0.99556-1.749 2.0614-2.4316 3.1992-0.65422 1.1093-1.1508 2.2895-1.4922 3.541-0.34134 1.2231-0.58435 2.2764-0.72657 3.1582s-0.21289 1.663-0.21289 2.3457c0 2.6453 0.82483 4.7936 2.4746 6.4434 1.6782 1.6213 3.8536 2.4316 6.5274 2.4316 2.5884 0 4.9071-0.65445 6.9551-1.9629 2.0764-1.3084 3.699-3.143 4.8652-5.5039h-5.8887c-0.42667 0.82489-1.0811 1.4793-1.9629 1.9629-0.85334 0.48356-1.7924 0.72656-2.8164 0.72656-1.2231 0-2.2038-0.35725-2.9434-1.0684-0.73956-0.73956-1.1094-1.6912-1.1094-2.8574 0-0.48356 0.04357-1.1235 0.1289-1.9199h15.486c0.512-1.9342 0.76953-3.7126 0.76953-5.334 0-2.5031-0.83936-4.5371-2.5176-6.1016-1.6498-1.5644-3.8271-2.3457-6.5293-2.3457zm-83.285 0.38281 1.5801 23.041h6.1426l7.084-16.213 0.21289 16.213h6.1856l11.266-23.041h-6.1875l-6.9551 16.129v-16.129h-6.1426l-6.7852 16.129-0.21289-16.129h-6.1875zm-42.496 4.3945c1.3084 0 2.3472 0.45501 3.1152 1.3652s1.1524 2.1194 1.1524 3.627c0 0.71111-0.11424 1.565-0.3418 2.5605-0.22756 0.99556-0.58285 2.076-1.0664 3.2422-0.48356 1.1378-1.2232 2.1059-2.2188 2.9023-0.99556 0.768-2.1612 1.1523-3.498 1.1523-1.28 0-2.3043-0.44244-3.0723-1.3242-0.768-0.91022-1.1523-2.1174-1.1523-3.625 0-2.7022 0.69607-5.0209 2.0898-6.9551 1.3938-1.9627 3.058-2.9453 4.9922-2.9453zm125.06 0c0.82488 0 1.4939 0.12876 2.0059 0.38476s0.88182 0.65487 1.1094 1.1953c0.22758 0.512 0.36892 1.0232 0.42578 1.5352 0.08534 0.48356 0.12891 1.1235 0.12891 1.9199h-9.3867c0.93867-3.3564 2.8439-5.0352 5.7168-5.0352zm-37.93 7.7656-0.3418 1.6211c-0.39822 1.7636-1.0962 3.116-2.0918 4.0547-0.96712 0.93867-2.1763 1.4082-3.627 1.4082-2.0764 0-3.1133-0.71254-3.1133-2.1348 0-0.99556 0.36982-1.8349 1.1094-2.5176 0.768-0.68267 1.8484-1.1377 3.2422-1.3652l2.8164-0.46875c0.99556-0.19911 1.6645-0.39854 2.0059-0.59766zm-209.88 33.109-6.6133 31.105h12.16c2.1049 0 4.0246-0.28462 5.7598-0.85352 1.7636-0.59733 3.2428-1.366 4.4375-2.3047 1.1947-0.93867 2.248-2.0481 3.1582-3.3281 0.93866-1.28 1.6638-2.5453 2.1758-3.7969 0.512-1.28 0.93796-2.5889 1.2793-3.9258 0.34133-1.3653 0.56981-2.5309 0.68359-3.4981 0.11377-0.99556 0.16992-1.9056 0.16992-2.7305 0-3.7262-0.88098-6.4292-2.6445-8.1074-1.7351-1.7067-4.5378-2.5605-8.4062-2.5605h-12.16zm100.05 0-6.6133 31.105h5.9727l6.6133-31.105h-5.9727zm151.51 2.3477-1.3223 6.1855h-2.9434l-0.85352 3.9688h2.9434l-2.9863 14.166c-0.14222 0.65422-0.21289 1.236-0.21289 1.748 0 1.1662 0.41144 2.0637 1.2363 2.6894 0.82489 0.65422 2.0195 0.98047 3.584 0.98047 1.3084 0 2.5176-0.15587 3.627-0.46875l0.85351-4.1816c-0.59733 0.08533-1.0669 0.12695-1.4082 0.12695-1.0809 0-1.6211-0.35529-1.6211-1.0664 0-0.22755 0.08519-0.71161 0.25586-1.4512l2.6465-12.543h3.3281l0.85351-3.9688h-3.3281l1.3223-6.1855h-5.9746zm-246.31 2.9863h5.7598c3.8969 0 5.8457 1.9198 5.8457 5.7598 0 0.85333-0.05614 1.8069-0.16992 2.8594-0.11378 1.024-0.39841 2.2748-0.85352 3.7539-0.42667 1.4507-0.98139 2.745-1.6641 3.8828-0.68267 1.1378-1.6779 2.1185-2.9863 2.9434-1.3084 0.82489-2.8168 1.2383-4.5234 1.2383h-5.7168l4.3086-20.438zm31.83 2.3457c-1.8204 0-3.4701 0.29915-4.9492 0.89648-1.4791 0.59734-2.6883 1.3951-3.627 2.3906-0.93867 0.99556-1.749 2.0614-2.4316 3.1992-0.65423 1.1093-1.1528 2.2895-1.4941 3.541-0.34134 1.2231-0.58239 2.2764-0.72461 3.1582-0.14222 0.88178-0.21289 1.663-0.21289 2.3457 0 2.6453 0.82483 4.7936 2.4746 6.4434 1.6782 1.6213 3.8536 2.4316 6.5274 2.4316 2.5884 0 4.9071-0.65445 6.9551-1.9629 2.0764-1.3084 3.6971-3.143 4.8633-5.5039h-5.8887c-0.42667 0.82489-1.0792 1.4793-1.9609 1.9629-0.85333 0.48356-1.7924 0.72461-2.8164 0.72461-1.2231 0-2.2058-0.35529-2.9453-1.0664-0.73956-0.73955-1.1094-1.6931-1.1094-2.8594 0-0.48355 0.04358-1.1235 0.12891-1.9199h15.488c0.512-1.9342 0.76758-3.7107 0.76758-5.332 0-2.5031-0.83935-4.5371-2.5176-6.1016-1.6498-1.5644-3.8251-2.3477-6.5273-2.3477zm45.951 0c-1.8204 0-3.4701 0.29915-4.9492 0.89648-1.4791 0.59734-2.6883 1.3951-3.627 2.3906-0.93867 0.99556-1.749 2.0614-2.4316 3.1992-0.65422 1.1093-1.1509 2.2895-1.4922 3.541-0.34133 1.2231-0.58434 2.2764-0.72656 3.1582-0.14222 0.88178-0.21289 1.663-0.21289 2.3457 0 2.6453 0.82483 4.7936 2.4746 6.4434 1.6782 1.6213 3.8536 2.4316 6.5273 2.4316 2.5884 0 4.9071-0.65445 6.9551-1.9629 2.0764-1.3084 3.699-3.143 4.8652-5.5039h-5.8887c-0.42667 0.82489-1.0811 1.4793-1.9629 1.9629-0.85333 0.48356-1.7924 0.72461-2.8164 0.72461-1.2231 0-2.2038-0.35529-2.9434-1.0664-0.73955-0.73955-1.1094-1.6931-1.1094-2.8594 0-0.48355 0.04162-1.1235 0.12695-1.9199h15.488c0.512-1.9342 0.76954-3.7107 0.76954-5.332 0-2.5031-0.83936-4.5371-2.5176-6.1016-1.6498-1.5644-3.8271-2.3477-6.5293-2.3477zm37.035 0c-4.2098 0-7.6234 1.5519-10.24 4.6523-2.5884 3.072-3.8828 6.8118-3.8828 11.221 0 2.5884 0.83936 4.6641 2.5176 6.2285 1.6782 1.536 3.9262 2.3047 6.7422 2.3047 4.2382 0 7.6789-1.5228 10.324-4.5664 2.6453-3.0436 3.9688-6.8124 3.9688-11.307 0-2.6453-0.83935-4.721-2.5176-6.2285-1.6782-1.536-3.9823-2.3047-6.9121-2.3047zm28.246 0c-2.8444 0-5.2483 1.2673-7.2109 3.7988l0.72461-3.4141h-5.9726l-6.8691 32.342h5.9726l2.5606-12.033c0.88178 2.5031 2.7725 3.7559 5.6738 3.7559 3.4418 0 6.3858-1.5228 8.832-4.5664 2.4462-3.072 3.6699-6.7557 3.6699-11.051 0-2.7022-0.66897-4.8485-2.0059-6.4414-1.3084-1.5929-3.0994-2.3906-5.375-2.3906zm25.812 0c-1.3938 0-2.6446 0.29915-3.7539 0.89648-1.1093 0.56889-2.2895 1.5496-3.541 2.9434l0.72461-3.4551h-5.9316l-4.9062 23.041h5.9746l2.9434-13.824c0.31288-1.4791 0.90923-2.6467 1.791-3.5 0.91022-0.88178 1.9926-1.3223 3.2441-1.3223 0.82489 0 1.4793 0.22848 1.9629 0.68359 0.48356 0.45511 0.72461 1.0515 0.72461 1.791 0 0.45511-0.04357 0.92465-0.1289 1.4082l-3.1562 14.764h5.9726l2.9453-13.824c0.31289-1.536 0.92377-2.7181 1.834-3.543 0.93867-0.85333 2.0752-1.2793 3.4121-1.2793 1.6498 0 2.4766 0.79578 2.4766 2.3887 0 0.512-0.07262 1.0958-0.21484 1.75l-3.0723 14.508h5.9746l3.2852-15.447c0.22755-1.1093 0.34179-1.9758 0.34179-2.6016 0-1.6782-0.54215-2.9871-1.623-3.9258-1.0524-0.96711-2.5298-1.4512-4.4356-1.4512-2.7876 0-5.3056 1.1676-7.5527 3.5-0.31289-1.0809-0.95281-1.9348-1.9199-2.5605-0.93866-0.62578-2.0626-0.93945-3.3711-0.93945zm34.133 0c-1.8204 0-3.4701 0.29915-4.9492 0.89648-1.4791 0.59734-2.6883 1.3951-3.627 2.3906-0.93867 0.99556-1.749 2.0614-2.4316 3.1992-0.65422 1.1093-1.1508 2.2895-1.4922 3.541-0.34133 1.2231-0.58433 2.2764-0.72656 3.1582-0.14222 0.88178-0.21289 1.663-0.21289 2.3457 0 2.6453 0.82483 4.7936 2.4746 6.4434 1.6782 1.6213 3.8536 2.4316 6.5273 2.4316 2.5884 0 4.9071-0.65445 6.9551-1.9629 2.0764-1.3084 3.699-3.143 4.8652-5.5039h-5.8887c-0.42666 0.82489-1.0811 1.4793-1.9629 1.9629-0.85333 0.48356-1.7924 0.72461-2.8164 0.72461-1.2231 0-2.2038-0.35529-2.9434-1.0664-0.73956-0.73955-1.1094-1.6931-1.1094-2.8594 0-0.48355 0.04358-1.1235 0.12891-1.9199h15.486c0.512-1.9342 0.76953-3.7107 0.76953-5.332 0-2.5031-0.83936-4.5371-2.5176-6.1016-1.6498-1.5644-3.8271-2.3477-6.5293-2.3477zm28.117 0c-1.5929 0-2.9995 0.31368-4.2227 0.93945-1.2231 0.59733-2.4032 1.578-3.541 2.9434l0.76758-3.498h-5.9727l-4.9082 23.041h5.9746l2.7734-12.971c0.39822-1.7636 1.1088-3.1431 2.1328-4.1387 1.0524-1.024 2.2887-1.5371 3.7109-1.5371 2.1049 0 3.1582 1.0659 3.1582 3.1992 0 0.45512-0.0852 1.1531-0.25586 2.0918l-2.8594 13.355h5.9746l3.2852-15.447c0.17067-0.79644 0.25586-1.5777 0.25586-2.3457 0-1.7067-0.56925-3.0717-1.707-4.0957-1.1378-1.024-2.6606-1.5371-4.5664-1.5371zm-187.31 0.38477 3.1582 23.041h6.2715l12.844-23.041h-6.3145l-8.3633 16.854-1.2793-16.854h-6.3164zm-12.715 4.3945c0.82489 0 1.4939 0.12877 2.0059 0.38477s0.88182 0.65291 1.1094 1.1934c0.22758 0.512 0.37087 1.0251 0.42774 1.5371 0.08533 0.48355 0.12695 1.1235 0.12695 1.9199h-9.3867c0.93867-3.3564 2.8439-5.0352 5.7168-5.0352zm45.953 0c0.82489 0 1.4939 0.12877 2.0059 0.38477s0.88182 0.65291 1.1094 1.1934c0.22757 0.512 0.36891 1.0251 0.42578 1.5371 0.08533 0.48355 0.1289 1.1235 0.1289 1.9199h-9.3867c0.93867-3.3564 2.8439-5.0352 5.7168-5.0352zm36.82 0c1.3084 0 2.3472 0.45501 3.1152 1.3652 0.768 0.91022 1.1523 2.1194 1.1523 3.627 0 0.71112-0.11424 1.565-0.3418 2.5606-0.22755 0.99555-0.58285 2.076-1.0664 3.2422-0.48356 1.1378-1.2232 2.1039-2.2188 2.9004-0.99556 0.768-2.1612 1.1523-3.498 1.1523-1.28 0-2.3043-0.44048-3.0723-1.3223-0.768-0.91022-1.1524-2.1194-1.1524-3.627 0-2.7022 0.69803-5.0208 2.0918-6.9551 1.3938-1.9627 3.056-2.9434 4.9902-2.9434zm26.711 0c1.1378 0 2.0478 0.44049 2.7305 1.3223 0.68267 0.88178 1.0234 2.0619 1.0234 3.541 0 2.7022-0.68349 5.0499-2.0488 7.041-1.3369 1.9911-2.9284 2.9863-4.7773 2.9863-1.1378 0-2.0478-0.44049-2.7305-1.3223-0.68267-0.88178-1.0254-2.0474-1.0254-3.498 0-2.7022 0.68349-5.0499 2.0488-7.041 1.3653-2.0196 2.9588-3.0293 4.7793-3.0293zm61.695 0c0.82489 0 1.4939 0.12877 2.0059 0.38477s0.88182 0.65291 1.1094 1.1934c0.22757 0.512 0.36891 1.0251 0.42578 1.5371 0.08533 0.48355 0.12891 1.1235 0.12891 1.9199h-9.3867c0.93866-3.3564 2.8439-5.0352 5.7168-5.0352zm-52.309 40.875-6.6133 31.104h6.3984l6.6133-31.104h-6.3984zm19.541 7.6797c-2.1618 0-4.0961 0.44049-5.8027 1.3223s-3.0446 1.9641-4.0117 3.2441c-0.93866 1.2516-1.7199 2.6582-2.3457 4.2226-0.62578 1.5644-1.0392 2.944-1.2383 4.1387-0.19912 1.1662-0.29883 2.2195-0.29883 3.1582s0.14329 1.8487 0.42773 2.7305c0.28444 0.88177 0.73946 1.7628 1.3652 2.6445 0.65422 0.88178 1.6078 1.5943 2.8594 2.1348 1.28 0.54044 2.7864 0.81054 4.5215 0.81054 2.7591 0 5.1339-0.78321 7.125-2.3476 2.0196-1.5644 3.4717-3.7688 4.3535-6.6133h-5.7188c-0.65422 1.5076-1.3648 2.588-2.1328 3.2422-0.768 0.62578-1.7342 0.93946-2.9004 0.93946-2.5316 0-3.7988-1.4648-3.7988-4.3945 0-0.91022 0.09972-1.9054 0.29883-2.9863 0.22756-1.0809 0.57028-2.2049 1.0254-3.3711 0.45511-1.1947 1.1512-2.1754 2.0898-2.9434 0.93866-0.768 2.0336-1.1523 3.2852-1.1523 1.4507 0 2.3897 0.35529 2.8164 1.0664 0.42664 0.68266 0.65317 1.734 0.68164 3.1562h5.7188c0.11377-0.91023 0.16992-1.5211 0.16992-1.834 0-2.048-0.76869-3.7538-2.3047-5.1191-1.536-1.3653-3.5971-2.0488-6.1855-2.0488zm24.363 0c-4.2098 0-7.6234 1.55-10.24 4.6504-2.5884 3.072-3.8828 6.8138-3.8828 11.223 0 2.5884 0.83936 4.6641 2.5176 6.2285 1.6782 1.536 3.9242 2.3047 6.7402 2.3047 4.2382 0 7.6808-1.5228 10.326-4.5664 2.6453-3.0436 3.9668-6.8124 3.9668-11.307 0-2.6453-0.83936-4.721-2.5176-6.2285-1.6782-1.536-3.9804-2.3047-6.9102-2.3047zm28.586 0c-1.5929 0-3.0015 0.31368-4.2246 0.93946-1.2231 0.59733-2.4032 1.578-3.541 2.9434l0.76758-3.498h-5.9727l-4.9062 23.039h5.9727l2.7734-12.971c0.39822-1.7636 1.1088-3.1431 2.1328-4.1387 1.0524-1.024 2.2907-1.5352 3.7129-1.5352 2.1049 0 3.1562 1.0659 3.1562 3.1992 0 0.4551-0.08519 1.1531-0.25586 2.0918l-2.8574 13.354h5.9726l3.2852-15.445c0.17067-0.79645 0.25586-1.5777 0.25586-2.3457 0-1.7067-0.56925-3.0717-1.707-4.0957-1.1378-1.024-2.6587-1.5371-4.5645-1.5371zm21.162 0c-3.2711 0-5.945 0.82483-8.0215 2.4746-2.048 1.6498-3.0723 3.7274-3.0723 6.2305 0 1.1947 0.44245 2.217 1.3242 3.0703 0.91023 0.85334 2.3024 1.593 4.1797 2.2188l3.3711 1.0684c1.3369 0.42667 2.2053 0.78197 2.6035 1.0664 0.42667 0.28445 0.63867 0.66683 0.63867 1.1504 0 0.68267-0.41143 1.2519-1.2363 1.707-0.82488 0.42667-1.8908 0.64063-3.1992 0.64063-2.9013 0-4.4096-0.96813-4.5234-2.9024h-5.8457c-0.11377 0.56889-0.16992 0.99681-0.16992 1.2812 0 0.68267 0.14134 1.3642 0.42578 2.0469 0.3129 0.65422 0.78243 1.3377 1.4082 2.0488 0.65422 0.68267 1.6349 1.2374 2.9434 1.6641 1.3084 0.42666 2.8603 0.64062 4.6523 0.64062 3.6124 0 6.4838-0.81226 8.6172-2.4336 2.1618-1.6213 3.2441-3.7967 3.2441-6.5273 0-2.4747-1.7368-4.2386-5.207-5.291l-4.0957-1.1934c-1.0809-0.31289-1.8205-0.59752-2.2188-0.85352-0.36978-0.28444-0.55468-0.63974-0.55468-1.0664 0-0.68267 0.34272-1.2248 1.0254-1.623 0.68267-0.42667 1.5927-0.63867 2.7305-0.63867 1.1662 0 2.0762 0.19943 2.7305 0.59766 0.68267 0.39822 1.0234 0.93842 1.0234 1.6211 0 0.17067-0.04162 0.44077-0.12695 0.81055h5.7598c0.14222-0.62578 0.21289-1.166 0.21289-1.6211 0-1.9342-0.76868-3.4425-2.3047-4.5234-1.536-1.1093-3.6407-1.6641-6.3145-1.6641zm-50.688 4.7793c1.3084 0 2.3472 0.45501 3.1152 1.3652s1.1504 2.1194 1.1504 3.627c0 0.7111-0.11229 1.563-0.33985 2.5586-0.22755 0.99555-0.58285 2.0779-1.0664 3.2441-0.48356 1.1378-1.2232 2.104-2.2188 2.9004-0.99556 0.768-2.1631 1.1524-3.5 1.1524-1.28 0-2.3043-0.4405-3.0723-1.3223-0.768-0.91023-1.1504-2.1194-1.1504-3.627 0-2.7022 0.69607-5.0209 2.0898-6.9551 1.3938-1.9627 3.058-2.9434 4.9922-2.9434z" fill="#fff"/><path d="m63.459 2.5-60.959 60.959v1.416l62.375-62.375h-1.416zm5.002 0 64.164 64.168-65.957 65.957-64.168-64.164v1.4141l63.461 63.457-63.461 63.461v0.70703h0.70703l63.461-63.461 63.459 63.461h1.4121l-64.164-64.168 65.957-65.957 65.961 65.957-64.168 64.168h1.416l63.459-63.459 63.459 63.459h1.4141l-64.166-64.166 65.959-65.961 65.961 65.961-64.168 64.166h1.4141l63.461-63.459 63.459 63.459h1.4141l-64.166-64.166 65.959-65.959 65.959 65.959-64.166 64.166h1.4141l63.459-63.459 63.459 63.459h1.4141l-64.166-64.166 65.959-65.959 130.13 130.12h1.4141l-130.83-130.83 64.168-64.168h-1.4141l-63.461 63.461-63.459-63.461h-1.4141l64.166 64.168-65.959 65.959-65.959-65.961 64.166-64.166h-1.4141l-63.459 63.459-63.459-63.459h-1.416l64.168 64.168-65.959 65.959-65.961-65.961 64.166-64.166h-1.4141l-63.459 63.459-63.459-63.459h-1.4141l64.166 64.166-65.959 65.959-65.961-65.957 64.168-64.168h-1.4141l-63.461 63.461-63.459-63.461h-1.4121z" fill="#fff" fill-opacity=".1"/><path d="m0 0h900v200h-900z" fill="url(#b)" mask="url(#a)"/></svg>
