<svg xmlns="http://www.w3.org/2000/svg" width="512" height="512" viewBox="0 0 512 512" fill="#fff"><path d="m256 112c-79.339 0-144 64.66-144 144 0 33.922 11.847 65.14 31.582 89.788l-26.896 26.896a16 16 0 0 0 0 22.629 16 16 0 0 0 22.629 0l26.896-26.896c24.649 19.734 55.866 31.582 89.788 31.582 79.339 0 144-64.66 144-144 0-33.922-11.847-65.14-31.582-89.788l26.896-26.896a16 16 0 0 0 0-22.629 16 16 0 0 0-15.455-4.1406 16 16 0 0 0-7.1738 4.1406l-26.896 26.896c-24.649-19.734-55.866-31.582-89.788-31.582zm0 32c25.227 0 48.456 8.2589 67.14 22.23l-156.91 156.91c-13.971-18.684-22.23-41.913-22.23-67.14 0-62.045 49.954-112 112-112zm89.769 44.859c13.971 18.684 22.23 41.913 22.23 67.14 0 62.045-49.954 112-112 112-25.227 0-48.456-8.2589-67.14-22.23z"/></svg>