<svg xmlns="http://www.w3.org/2000/svg" width="512" height="512" viewBox="0 0 512 512" fill="#fff"><path d="m381.93 32.134a16.002 16.002 0 0 0-8.0176 3.4434l-256 208a16.002 16.002 0 0 0 5.5137 27.751l80.432 24.006-89.825 160.86a16.002 16.002 0 0 0 24.059 20.219l256-208a16.002 16.002 0 0 0-5.5137-27.751l-80.432-24.006 89.825-160.86a16.002 16.002 0 0 0-16.041-23.663zm-52.545 80.855-58.909 105.49a16.002 16.002 0 0 0 9.3946 23.133l70.545 21.057-167.8 136.34 58.909-105.49a16.002 16.002 0 0 0-9.3946-23.133l-70.545-21.057z"/></svg>