<svg xmlns="http://www.w3.org/2000/svg" width="512" height="512" viewBox="0 0 512 512" fill="#fff"><path d="m251.86 32.545a16.002 16.002 0 0 0-7.1738 4.1406l-56.234 56.236h-79.529a16.002 16.002 0 0 0-16 16v79.529l-56.236 56.234a16.002 16.002 0 0 0 0 22.629l56.236 56.234v79.529a16.002 16.002 0 0 0 16 16h79.529l56.234 56.236a16.002 16.002 0 0 0 22.629 0l56.234-56.236h79.529a16.002 16.002 0 0 0 16-16v-79.529l56.236-56.234a16.002 16.002 0 0 0 0-22.629l-56.236-56.234v-79.529a16.002 16.002 0 0 0-16-16h-79.529l-56.234-56.236a16.002 16.002 0 0 0-15.455-4.1406zm4.1406 38.084 49.607 49.605a16.002 16.002 0 0 0 11.314 4.6875h70.156v70.156a16.002 16.002 0 0 0 4.6875 11.314l49.605 49.607-49.605 49.607a16.002 16.002 0 0 0-4.6875 11.314v70.156h-70.156a16.002 16.002 0 0 0-11.314 4.6875l-49.607 49.605-49.607-49.605a16.002 16.002 0 0 0-11.314-4.6875h-70.156v-70.156a16.002 16.002 0 0 0-4.6875-11.314l-49.605-49.607 49.605-49.607a16.002 16.002 0 0 0 4.6875-11.314v-70.156h70.156a16.002 16.002 0 0 0 11.314-4.6875zm0 73.371c-61.666 0-112 50.334-112 112 0 61.666 50.334 112 112 112a16.002 16.002 0 0 0 16-16v-192a16.002 16.002 0 0 0-16-16zm-16 33.59v156.82c-36.633-7.3589-64-39.522-64-78.41s27.367-71.051 64-78.41z"/></svg>