<svg xmlns="http://www.w3.org/2000/svg" width="512" height="512" viewBox="0 0 512 512" fill="#fff"><path d="m80 32c-26.315 0-48 21.685-48 48v352c0 26.315 21.685 48 48 48h352c26.315 0 48-21.685 48-48v-352c0-26.315-21.685-48-48-48zm0 32h352c9.1407 0 16 6.8593 16 16v352c0 9.1407-6.8593 16-16 16h-352c-9.1407 0-16-6.8593-16-16v-352c0-9.1407 6.8593-16 16-16zm176 72c-8.864 0-16 7.136-16 16v208c0 8.864 7.136 16 16 16s16-7.136 16-16v-208c0-8.864-7.136-16-16-16zm-104 60c-8.864 0-16 7.136-16 16v148c0 8.864 7.136 16 16 16s16-7.136 16-16v-148c0-8.864-7.136-16-16-16zm208 60c-8.864 0-16 7.136-16 16v88c0 8.864 7.136 16 16 16s16-7.136 16-16v-88c0-8.864-7.136-16-16-16z"/></svg>