<svg xmlns="http://www.w3.org/2000/svg" width="512" height="512" viewBox="0 0 512 512" fill="#fff"><path d="m80 32c-26.315 0-48 21.685-48 48v352c0 26.315 21.685 48 48 48h352c26.315 0 48-21.685 48-48v-352c0-26.315-21.685-48-48-48zm0 32h352c9.1407 0 16 6.8593 16 16v352c0 9.1407-6.8593 16-16 16h-352c-9.1407 0-16-6.8593-16-16v-352c0-9.1407 6.8593-16 16-16zm321.39 80.061a16 16 0 0 0-5.5352 0.48437 16 16 0 0 0-7.1738 4.1406l-108.69 108.69-36.686-36.686a16.002 16.002 0 0 0-22.629 0l-120 120a16 16 0 0 0-4.1406 7.1738 16 16 0 0 0 0 8.2812 16 16 0 0 0 4.1406 7.1738 16 16 0 0 0 22.629 0l108.69-108.69 36.686 36.686a16.002 16.002 0 0 0 22.629 0l120-120a16 16 0 0 0 3.7871-6.0293 16 16 0 0 0 0.79688-7.0762 16 16 0 0 0-4.584-9.5234 16 16 0 0 0-9.9199-4.625z"/></svg>