<svg xmlns="http://www.w3.org/2000/svg" width="512" height="512" viewBox="0 0 512 512" fill="#fff"><path d="m256 32c-123.52 0-224 100.48-224 224s100.48 224 224 224 224-100.48 224-224-100.48-224-224-224zm0 32c106.23 0 192 85.772 192 192s-85.772 192-192 192-192-85.772-192-192 85.772-192 192-192zm0 80a16 16 0 0 0-16 16v96a16 16 0 0 0 0.0625 0.95312 16 16 0 0 0 0.0684 1.0508 16 16 0 0 0 0.20508 1.084 16 16 0 0 0 0.19531 0.98633 16 16 0 0 0 0.32617 0.98633 16 16 0 0 0 0.34961 1.0254 16 16 0 0 0 0.36719 0.75586 16 16 0 0 0 0.5625 1.1445 16 16 0 0 0 0.36914 0.55664 16 16 0 0 0 0.79883 1.1953 16 16 0 0 0 1.3809 1.5762l67.883 67.881a16 16 0 0 0 22.627 0 16 16 0 0 0 0-22.627l-63.195-63.197v-89.371a16 16 0 0 0-16-16z"/></svg>