<svg xmlns="http://www.w3.org/2000/svg" width="512" height="512" viewBox="0 0 512 512" fill="#fff"><path d="m205.91 147.76a16 16 0 0 0-5.9121 2.0059l-160 92.379a16.002 16.002 0 0 0 0 27.711l160 92.379a16 16 0 0 0 21.856-5.8574 16 16 0 0 0-5.8555-21.857l-136-78.52 136-78.52a16 16 0 0 0 5.8555-21.857 16 16 0 0 0-15.943-7.8633zm100.18 0a16 16 0 0 0-15.943 7.8633 16 16 0 0 0 5.8555 21.857l136 78.52-136 78.522a16 16 0 0 0-5.8555 21.856 16 16 0 0 0 21.856 5.8574l160-92.377a16.002 16.002 0 0 0 0-27.713l-160-92.377a16 16 0 0 0-5.9121-2.0078z"/></svg>