<svg xmlns="http://www.w3.org/2000/svg" width="512" height="512" viewBox="0 0 512 512" fill="#fff"><path d="m236.32 32.343c-23.293 4.9107-45.664 13.465-66.291 25.348a16.002 16.002 0 0 0-0.0137 0.0078c-108.09 62.405-145.25 201.09-82.844 309.18 62.405 108.09 201.09 145.25 309.18 82.842a16.002 16.002 0 0 0 0.0723-0.041c20.433-11.938 38.867-27.008 54.631-44.658a16.002 16.002 0 0 0-15.283-26.303c-82.361 17.626-166.55-19.7-208.79-92.565-42.061-73.144-32.18-164.9 24.496-227.4a16.002 16.002 0 0 0-15.154-26.402zm-38.582 46.918c-38.005 68.327-38.674 153.01 1.5156 222.87a16.002 16.002 0 0 0 0.0254 0.0449c40.398 69.701 114.04 111.45 192.2 112.72-3.6468 2.4797-7.345 4.8908-11.16 7.1211-93.107 53.732-211.68 21.954-265.43-71.147-53.755-93.107-21.984-211.69 71.117-265.46 2e-3 -0.0012 4e-3 -0.0027 6e-3 -0.0039 3e-3 -0.0015 5e-3 -0.0024 8e-3 -0.0039 3.8292-2.2056 7.7606-4.2148 11.723-6.1504z"/></svg>