<svg xmlns="http://www.w3.org/2000/svg" width="512" height="512" viewBox="0 0 512 512" fill="#fff"><path d="m208 32c-8.864 0-16 7.136-16 16v8h-104a16 16 0 0 0-16 16 16 16 0 0 0 16 16h8v344c0 26.315 21.685 48 48 48h224c26.315 0 48-21.685 48-48v-344h8a16 16 0 0 0 16-16 16 16 0 0 0-16-16h-104v-8c0-8.864-7.136-16-16-16zm-80 56h256v344c0 9.1407-6.8593 16-16 16h-224c-9.1407 0-16-6.8593-16-16zm80 48a16 16 0 0 0-16 16v232a16 16 0 0 0 16 16 16 16 0 0 0 16-16v-232a16 16 0 0 0-16-16zm96 0a16 16 0 0 0-16 16v232a16 16 0 0 0 16 16 16 16 0 0 0 16-16v-232a16 16 0 0 0-16-16z"/></svg>