<svg xmlns="http://www.w3.org/2000/svg" width="512" height="512" viewBox="0 0 512 512" fill="#fff"><path d="m256 32a16 16 0 0 0-16 16v313.37l-100.69-100.69a16 16 0 0 0-15.455-4.1406 16 16 0 0 0-7.1738 4.1406 16 16 0 0 0 0 22.629l128 128a16.002 16.002 0 0 0 22.629 0l128-128a16 16 0 0 0 0-22.629 16 16 0 0 0-22.629 0l-100.69 100.69v-313.37a16 16 0 0 0-16-16zm-208 352a16 16 0 0 0-16 16v64a16.002 16.002 0 0 0 16 16h416a16.002 16.002 0 0 0 16-16v-64a16 16 0 0 0-16-16 16 16 0 0 0-16 16v48h-384v-48a16 16 0 0 0-16-16z"/></svg>