<svg xmlns="http://www.w3.org/2000/svg" width="512" height="512" viewBox="0 0 512 512" fill="#fff"><path d="m80 32c-26.315 0-48 21.685-48 48v192c0 26.315 21.685 48 48 48h172.12l-32-32h-140.12c-9.1407 0-16-6.8593-16-16v-192c0-9.1407 6.8593-16 16-16h192c9.1407 0 16 6.8593 16 16v140.12l32 32v-172.12c0-26.315-21.685-48-48-48zm97.395 128.06a16 16 0 0 0-5.5352 0.48437 16 16 0 0 0-7.1738 4.1406 16 16 0 0 0 0 22.629l140.11 140.11-12.111 12.111a16.002 16.002 0 0 0 7.1719 26.77l64.002 17.148a16.002 16.002 0 0 0 19.596-19.596l-17.148-64a16.002 16.002 0 0 0-16.053-11.848 16.002 16.002 0 0 0-3.543 0.53516 16.002 16.002 0 0 0-7.1738 4.1387l-12.111 12.111-140.11-140.11a16 16 0 0 0-9.9199-4.625zm174.61 31.939v32h48v-32zm80 0v32c9.1407 0 16 6.8593 16 16h32c0-26.315-21.685-48-48-48zm16 80v48h32v-48zm-256 80v48h32v-48zm256 0v48h32v-48zm-256 80c0 26.315 21.685 48 48 48v-32c-9.1407 0-16-6.8593-16-16zm256 0c0 9.1407-6.8593 16-16 16v32c26.315 0 48-21.685 48-48zm-176 16v32h48v-32zm80 0v32h48v-32z"/></svg>