<svg xmlns="http://www.w3.org/2000/svg" width="512" height="512" viewBox="0 0 512 512" fill="#fff"><path d="m49.674 112.09a16.002 16.002 0 0 0-17.674 15.91v256a16.002 16.002 0 0 0 24 13.856l170.3-98.323v84.468a16.002 16.002 0 0 0 24 13.856l221.7-128a16.002 16.002 0 0 0 0-27.713l-221.7-128a16.002 16.002 0 0 0-6.3262-2.0547 16.002 16.002 0 0 0-17.674 15.91v84.467l-170.3-98.323a16.002 16.002 0 0 0-6.3262-2.0547zm14.326 43.623 162.3 93.704v13.168l-162.3 93.706zm194.3 0 173.7 100.29-173.7 100.29z"/></svg>