<svg xmlns="http://www.w3.org/2000/svg" width="512" height="512" viewBox="0 0 512 512" fill="#fff"><path d="m256 32c-123.52 0-224 100.48-224 224s100.48 224 224 224 224-100.48 224-224-100.48-224-224-224zm0 32c0.30401 0 0.59281 0.05719 0.89648 0.058594 3.089 0.3579 7.5833 2.6515 13.525 10.191 6.5409 8.2997 13.538 22.068 19.426 39.73 5.3467 16.04 9.856 35.251 13.186 56.688h-94.066c3.3295-21.437 7.8388-40.647 13.186-56.688 5.8874-17.662 12.885-31.431 19.426-39.73 5.9421-7.5399 10.436-9.8335 13.525-10.191 0.30367-0.001404 0.59247-0.058594 0.89648-0.058594zm-50.102 6.5723c-5.3289 9.7215-9.9638 20.87-14.104 33.289-6.4717 19.415-11.644 41.981-15.25 66.807h-92.662c24.161-48.756 68.415-85.704 122.02-100.1zm100.2 0c53.601 14.392 97.855 51.34 122.02 100.1h-92.662c-3.6064-24.826-8.7783-47.392-15.25-66.807-4.1397-12.419-8.7746-23.568-14.104-33.289zm-234.63 132.1h101.41c-1.4554 17.075-2.2188 34.931-2.2188 53.332s0.76337 36.257 2.2188 53.332h-101.41c-4.8649-16.925-7.4707-34.818-7.4707-53.332s2.6058-36.407 7.4707-53.332zm133.58 0h101.89c1.5478 16.959 2.3867 34.857 2.3867 53.332s-0.83892 36.373-2.3867 53.332h-101.89c-1.5478-16.959-2.3867-34.857-2.3867-53.332s0.83892-36.373 2.3867-53.332zm134.06 0h101.41c4.8649 16.925 7.4707 34.818 7.4707 53.332s-2.6058 36.407-7.4707 53.332h-101.41c1.4554-17.075 2.2188-34.931 2.2188-53.332s-0.76337-36.257-2.2188-53.332zm-255.23 138.66h92.662c3.6064 24.826 8.7783 47.392 15.25 66.807 4.1397 12.419 8.7746 23.568 14.104 33.289-53.601-14.392-97.855-51.34-122.02-100.1zm125.08 0h94.066c-3.3295 21.437-7.8388 40.647-13.186 56.688-5.8874 17.662-12.885 31.431-19.426 39.73-5.9421 7.5399-10.436 9.8335-13.525 10.191-0.30367 0.0014-0.59247 0.05859-0.89648 0.05859s-0.59281-0.05719-0.89648-0.05859c-3.089-0.3579-7.5833-2.6515-13.525-10.191-6.5409-8.2997-13.538-22.068-19.426-39.73-5.3467-16.04-9.856-35.251-13.186-56.688zm126.49 0h92.662c-24.161 48.756-68.415 85.704-122.02 100.1 5.3289-9.7215 9.9638-20.87 14.104-33.289 6.4717-19.415 11.644-41.981 15.25-66.807z"/></svg>