<svg xmlns="http://www.w3.org/2000/svg" width="512" height="512" viewBox="0 0 512 512" fill="#fff"><path d="m251.86 32.545a16.002 16.002 0 0 0-7.1738 4.1406l-208 208a16.002 16.002 0 0 0 11.314 27.314h28.572v192a16.002 16.002 0 0 0 16 16h104a16.002 16.002 0 0 0 16-16v-132.57h86.855v132.57a16.002 16.002 0 0 0 16 16h104a16.002 16.002 0 0 0 16-16v-192h28.572a16.002 16.002 0 0 0 11.314-27.314l-208-208a16.002 16.002 0 0 0-15.455-4.1406zm4.1406 38.082 169.37 169.37h-5.9453a16.002 16.002 0 0 0-16 16v192h-72v-132.57a16.002 16.002 0 0 0-16-16h-118.86a16.002 16.002 0 0 0-16 16v132.57h-72v-192a16.002 16.002 0 0 0-16-16h-5.9453z"/></svg>