<svg xmlns="http://www.w3.org/2000/svg" width="512" height="512" viewBox="0 0 512 512" fill="#fff"><path d="m256 32c-123.52 0-224 100.48-224 224a16.002 16.002 0 0 0 0 0.05859c0.21406 59.32 23.959 116.15 66.012 157.99a16 16 0 0 0 22.627-0.05664 16 16 0 0 0-0.05664-22.627c-36.049-35.865-56.391-84.55-56.58-135.4 0.021169-106.21 85.783-191.96 192-191.96s191.98 85.751 192 191.96c-0.18871 50.85-20.531 99.535-56.58 135.4a16 16 0 0 0-0.05664 22.627 16 16 0 0 0 22.627 0.05664c42.053-41.839 65.798-98.666 66.012-157.99a16.002 16.002 0 0 0 0-0.05859c0-123.52-100.48-224-224-224zm0 96c-70.503 0-128 57.497-128 128a16.002 16.002 0 0 0 0 0.05859c0.12222 33.895 13.692 66.371 37.721 90.277a16 16 0 0 0 22.627-0.05664 16 16 0 0 0-0.05664-22.627c-18.022-17.93-28.19-42.261-28.289-67.682 0.01593-53.195 42.799-95.971 95.998-95.971s95.982 42.776 95.998 95.971c-0.0995 25.421-10.267 49.752-28.289 67.682a16 16 0 0 0-0.05664 22.627 16 16 0 0 0 22.627 0.05664c24.028-23.906 37.598-56.383 37.721-90.277a16.002 16.002 0 0 0 0-0.01757 16.002 16.002 0 0 0 0-0.0293 16.002 16.002 0 0 0 0-0.01172c0-70.503-57.497-128-128-128zm0 96a32 32 0 0 0-32 32 32 32 0 0 0 32 32 32 32 0 0 0 32-32 32 32 0 0 0-32-32z"/></svg>