<svg xmlns="http://www.w3.org/2000/svg" width="512" height="512" viewBox="0 0 512 512" fill="#fff"><path d="m256 32c-44.42 0-85.823 13.048-120.68 35.436l23.121 23.121c28.577-16.857 61.904-26.557 97.561-26.557 106.21 0 191.98 85.751 192 191.96-0.12816 34.533-9.5753 68.055-26.9 97.254l23.217 23.217c22.933-35.642 35.53-77.335 35.686-120.37a16.002 16.002 0 0 0 0-0.05859c0-123.52-100.48-224-224-224zm-212.14 0.54492a16 16 0 0 0-7.1738 4.1406 16 16 0 0 0 0 22.629l416 416a16 16 0 0 0 22.629 0 16 16 0 0 0 0-22.629l-416-416a16 16 0 0 0-15.455-4.1406zm212.14 95.455c-17.702 0-34.583 3.6302-49.941 10.176l25.146 25.146c7.9165-2.0976 16.198-3.3223 24.795-3.3223 53.199 0 95.982 42.776 95.998 95.971-0.033 8.4296-1.2711 16.711-3.4375 24.707l25.148 25.148c6.6536-15.592 10.229-32.492 10.291-49.768a16.002 16.002 0 0 0 0-0.00195 16.002 16.002 0 0 0 0-0.00195 16.002 16.002 0 0 0 0-0.00196 16.002 16.002 0 0 0 0-0.00195 16.002 16.002 0 0 0 0-0.00195 16.002 16.002 0 0 0 0-0.00195 16.002 16.002 0 0 0 0-0.00196 16.002 16.002 0 0 0 0-0.00195 16.002 16.002 0 0 0 0-0.00195 16.002 16.002 0 0 0 0-0.00196 16.002 16.002 0 0 0 0-0.00195 16.002 16.002 0 0 0 0-0.00195 16.002 16.002 0 0 0 0-0.00196 16.002 16.002 0 0 0 0-0.00195 16.002 16.002 0 0 0 0-0.00195 16.002 16.002 0 0 0 0-0.00196 16.002 16.002 0 0 0 0-0.00195 16.002 16.002 0 0 0 0-0.00195 16.002 16.002 0 0 0 0-0.00196 16.002 16.002 0 0 0 0-0.00195 16.002 16.002 0 0 0 0-0.00195 16.002 16.002 0 0 0 0-0.00196 16.002 16.002 0 0 0 0-0.00195 16.002 16.002 0 0 0 0-0.00195 16.002 16.002 0 0 0 0-0.00195 16.002 16.002 0 0 0 0-0.00196 16.002 16.002 0 0 0 0-0.00195 16.002 16.002 0 0 0 0-0.00195 16.002 16.002 0 0 0 0-0.00196 16.002 16.002 0 0 0 0-0.00195c0-70.503-57.497-128-128-128zm-188.56 7.3184c-22.387 34.859-35.436 76.261-35.436 120.68a16.002 16.002 0 0 0 0 0.05859c0.21406 59.32 23.959 116.15 66.012 157.99a16 16 0 0 0 22.627-0.05664 16 16 0 0 0-0.05664-22.627c-36.049-35.865-56.391-84.55-56.58-135.4 0.007104-35.641 9.7045-68.955 26.555-97.521l-23.121-23.121zm70.74 70.74c-6.5456 15.358-10.176 32.239-10.176 49.941a16.002 16.002 0 0 0 0 0.05859c0.12222 33.895 13.692 66.371 37.721 90.277a16 16 0 0 0 22.627-0.05664 16 16 0 0 0-0.05664-22.627c-18.022-17.93-28.19-42.261-28.289-67.682 0.00257-8.5863 1.2272-16.856 3.3223-24.764l-25.148-25.148z"/></svg>