<svg xmlns="http://www.w3.org/2000/svg" width="512" height="512" viewBox="0 0 512 512" fill="#fff"><path d="m136 112a16 16 0 0 0-16 16v40h-72a16.002 16.002 0 0 0-16 16v144a16.002 16.002 0 0 0 16 16h72v40a16 16 0 0 0 16 16 16 16 0 0 0 16-16v-40h88v40a16 16 0 0 0 16 16 16 16 0 0 0 16-16v-40h88v40a16 16 0 0 0 16 16 16 16 0 0 0 16-16v-40h72a16.002 16.002 0 0 0 16-16v-144a16.002 16.002 0 0 0-16-16h-72v-40a16 16 0 0 0-16-16 16 16 0 0 0-16 16v40h-88v-40a16 16 0 0 0-16-16 16 16 0 0 0-16 16v40h-88v-40a16 16 0 0 0-16-16zm-72 88h72 120 120 72v112h-72-120-120-72v-112zm76 32a16.002 16.002 0 0 0-16 16v16a16.002 16.002 0 0 0 16 16h16a16.002 16.002 0 0 0 16-16v-16a16.002 16.002 0 0 0-16-16h-16zm108 0a16.002 16.002 0 0 0-16 16v16a16.002 16.002 0 0 0 16 16h16a16.002 16.002 0 0 0 16-16v-16a16.002 16.002 0 0 0-16-16h-16zm108 0a16.002 16.002 0 0 0-16 16v16a16.002 16.002 0 0 0 16 16h16a16.002 16.002 0 0 0 16-16v-16a16.002 16.002 0 0 0-16-16h-16z"/></svg>