<svg xmlns="http://www.w3.org/2000/svg" width="512" height="512" viewBox="0 0 512 512" fill="#fff"><path d="m256 32c-123.52 0-224 100.48-224 224s100.48 224 224 224 224-100.48 224-224-100.48-224-224-224zm0 32c106.23 0 192 85.772 192 192s-85.772 192-192 192-192-85.772-192-192 85.772-192 192-192zm-64 80c-8.864 0-16 7.136-16 16v192c0 8.864 7.136 16 16 16s16-7.136 16-16v-56.674c9.4345 5.5002 20.367 8.6738 32 8.6738 16.697 0 31.961-6.5153 43.396-17.113 8.836 10.435 22.003 17.113 36.604 17.113a16 16 0 0 0 16-16 16 16 0 0 0-16-16c-9.026 0-16-6.974-16-16v-96c0-8.864-7.136-16-16-16s-16 7.136-16 16v80c0 17.863-14.137 32-32 32s-32-14.137-32-32v-80c0-8.864-7.136-16-16-16zm160 32c-8.864 0-16 7.136-16 16s7.136 16 16 16h32c8.864 0 16-7.136 16-16s-7.136-16-16-16z"/></svg>