<svg xmlns="http://www.w3.org/2000/svg" width="512" height="512" viewBox="0 0 512 512" fill="#fff"><path d="m366.85 112a16.002 16.002 0 0 0-16 16v256a16.002 16.002 0 0 0 16 16h64a16.002 16.002 0 0 0 16-16v-256a16.002 16.002 0 0 0-16-16zm-286.26 0.01a16.002 16.002 0 0 0-15.441 15.988v256a16.002 16.002 0 0 0 24 13.857l221.7-128a16.002 16.002 0 0 0 0-27.713l-221.7-128a16.002 16.002 0 0 0-6.3281-2.0547 16.002 16.002 0 0 0-2.2305-0.0781zm302.26 31.99h32v224h-32zm-285.7 11.711 173.7 100.29-86.85 50.145-86.852 50.143v-100.29z"/></svg>