<svg xmlns="http://www.w3.org/2000/svg" width="512" height="512" viewBox="0 0 512 512" fill="#fff"><path d="m81.15 112a16.002 16.002 0 0 0-16 15.998v256a16.002 16.002 0 0 0 24 13.855l221.7-128a16.002 16.002 0 0 0 0-27.713l-221.7-128a16.002 16.002 0 0 0-8-2.1426zm301.7 0c-17.728 0-32 14.272-32 32v224c0 17.728 14.272 32 32 32h32c17.728 0 32-14.272 32-32v-224c0-17.728-14.272-32-32-32zm16 32a16 16 0 0 1 16 16v192a16 16 0 0 1-16 16 16 16 0 0 1-16-16v-192a16 16 0 0 1 16-16zm-301.7 11.711 173.7 100.29-173.7 100.29z"/></svg>