<svg xmlns="http://www.w3.org/2000/svg" width="512" height="512" viewBox="0 0 512 512" fill="#fff"><path d="m256 32c-123.52 0-224 100.48-224 224s100.48 224 224 224a16.002 16.002 0 0 0 15.289-20.715s-5.2977-17.319-7.916-36.918c-1.3091-9.7992-1.8598-20.063-1.0078-28.145 0.85204-8.0818 3.2924-13.251 4.9492-14.908 6.5951-6.5951 14.005-8.494 26.057-7.8379 12.052 0.65613 27.437 4.7876 43.758 9.5352 16.321 4.7476 33.585 10.065 51.205 11.879 17.62 1.8139 36.706-0.22264 52.535-12.088 19.755-14.808 29.336-37.062 34.086-59.33 4.7495-22.268 5.045-45.411 5.0449-65.473 0-123.52-100.48-224-224-224zm0 32c106.23 0 192 85.772 192 192 4e-5 19.63-0.50745 40.822-4.3418 58.799-3.8343 17.977-10.618 31.878-21.984 40.398-7.5453 5.656-16.891 7.2172-30.062 5.8613-13.171-1.3559-29.055-5.9768-45.545-10.773-16.49-4.7967-33.575-9.8155-50.955-10.762-17.38-0.94626-36.365 3.1013-50.426 17.162-9.6569 9.6568-12.873 22.144-14.143 34.184s-0.40601 24.362 1.1133 35.734c0.98999 7.4104 2.2846 14.102 3.5957 20.242-96.421-10.317-171.25-91.635-171.25-190.85 0-106.23 85.772-192 192-192zm-64 49.148a32 32 0 0 0-16 4.2871 32 32 0 0 0-11.713 43.713 32 32 0 0 0 43.713 11.713 32 32 0 0 0 11.713-43.713 32 32 0 0 0-27.713-16zm128 0a32 32 0 0 0-27.713 16 32 32 0 0 0 11.713 43.713 32 32 0 0 0 43.713-11.713 32 32 0 0 0-11.713-43.713 32 32 0 0 0-16-4.2871zm-192 110.85a32 32 0 0 0-32 32 32 32 0 0 0 32 32 32 32 0 0 0 32-32 32 32 0 0 0-32-32zm256 0a32 32 0 0 0-32 32 32 32 0 0 0 32 32 32 32 0 0 0 32-32 32 32 0 0 0-32-32z"/></svg>