<svg xmlns="http://www.w3.org/2000/svg" width="512" height="512" viewBox="0 0 512 512" fill="#fff"><path d="m144 112c-17.728 0-32 14.272-32 32v224c0 17.728 14.272 32 32 32h32c17.728 0 32-14.272 32-32v-224c0-17.728-14.272-32-32-32zm192 0c-17.728 0-32 14.272-32 32v224c0 17.728 14.272 32 32 32h32c17.728 0 32-14.272 32-32v-224c0-17.728-14.272-32-32-32zm-176 32c8.864 0 16 7.136 16 16v192c0 8.864-7.136 16-16 16s-16-7.136-16-16v-192c0-8.864 7.136-16 16-16zm192 0c8.864 0 16 7.136 16 16v192c0 8.864-7.136 16-16 16s-16-7.136-16-16v-192c0-8.864 7.136-16 16-16z"/></svg>