<svg xmlns="http://www.w3.org/2000/svg" width="512" height="512" viewBox="0 0 512 512" fill="#fff"><path d="m48 32a16.002 16.002 0 0 0-16 16c0 114.56 45.527 224.46 126.53 305.47 81.004 81.004 190.91 126.53 305.47 126.53a16.002 16.002 0 0 0 16-16v-133.71a16.002 16.002 0 0 0-12.758-15.668l-112.02-23.178a16.002 16.002 0 0 0-14.557 4.3555l-46.912 46.912c-25.531-14.748-49.358-32.671-70.574-53.887-21.216-21.216-39.139-45.043-53.887-70.574l46.912-46.912a16.002 16.002 0 0 0 4.3555-14.557l-23.178-112.02a16.002 16.002 0 0 0-15.668-12.758zm16.396 32h104.29l18.789 90.809-49.506 49.506a16.002 16.002 0 0 0-2.8066 18.836c17.158 32.213 39.109 62.016 65.391 88.297 26.281 26.281 56.084 48.233 88.297 65.391a16.002 16.002 0 0 0 18.836-2.8066l49.506-49.506 90.809 18.789v104.29c-100.26-4.0134-195.61-45.534-266.84-116.76s-112.75-166.58-116.76-266.84z"/></svg>