<svg xmlns="http://www.w3.org/2000/svg" width="512" height="512" viewBox="0 0 512 512" fill="#fff"><path d="m256 32a16 16 0 0 0-16 16v208a16 16 0 0 0 16 16 16 16 0 0 0 16-16v-208a16 16 0 0 0-16-16zm-63.672 44.053a16 16 0 0 0-6.1465 1.0918c-73.633 28.743-122.18 99.812-122.18 178.86 0 105.85 86.151 192 192 192s192-86.151 192-192c-2e-5 -79.044-48.549-150.11-122.18-178.86a16 16 0 0 0-20.723 9.0859 16 16 0 0 0 9.0859 20.723c61.446 23.986 101.82 83.085 101.82 149.05 0 88.555-71.445 160-160 160s-160-71.445-160-160c1.5e-5 -65.962 40.372-125.06 101.82-149.05a16 16 0 0 0 9.0859-20.723 16 16 0 0 0-12.49-9.998 16 16 0 0 0-2.0859-0.17969z"/></svg>