<svg xmlns="http://www.w3.org/2000/svg" width="512" height="512" viewBox="0 0 512 512" fill="#fff"><path d="m374.35 68.461a16.002 16.002 0 0 0-14.682 7.9785l-56.344 97.592a16.002 16.002 0 0 0 3.6562 20.326c14.788 12.24 24.675 29.378 27.871 48.307a16.002 16.002 0 0 0 15.777 13.336h112.69a16.002 16.002 0 0 0 15.953-17.232c-5.2189-67.588-40.787-129.2-96.705-167.53a16.002 16.002 0 0 0-8.2207-2.7812zm-236.56 0.26562a16.002 16.002 0 0 0-8.2266 2.7949c-55.715 38.332-91.144 99.816-96.367 167.24a16.002 16.002 0 0 0 15.953 17.236h112.34a16.002 16.002 0 0 0 15.775-13.324c3.2053-18.89 13.077-35.992 27.83-48.217a16.002 16.002 0 0 0 3.6465-20.32l-56.254-97.436a16.002 16.002 0 0 0-14.697-7.9766zm240.53 39.428c35.468 29.348 59.195 70.454 66.869 115.85h-81.982c-5.0049-16.774-13.861-32.118-25.879-44.846l40.992-71zm-244.45 0.29101 40.887 70.818c-11.983 12.701-20.818 28.007-25.822 44.736h-81.635c7.662-45.244 31.274-86.231 66.57-115.55zm122.14 99.555c-26.32 0-48 21.68-48 48s21.68 48 48 48 48-21.68 48-48-21.68-48-48-48zm0 32c9.026 0 16 6.974 16 16s-6.974 16-16 16-16-6.974-16-16 6.974-16 16-16zm-33.186 89.76a16.002 16.002 0 0 0-5.5332 0.92773 16.002 16.002 0 0 0-8.4844 7.0723l-56.369 97.635a16.002 16.002 0 0 0 6.9121 22.414c30.144 14.52 63.158 22.103 96.617 22.191a16.002 16.002 0 0 0 0.08594 0c33.459-0.088 66.473-7.6716 96.617-22.191a16.002 16.002 0 0 0 6.9121-22.414l-56.369-97.635a16.002 16.002 0 0 0-19.531-6.959c-8.8445 3.3556-18.213 5.1099-27.672 5.1934-9.4587-0.0835-18.827-1.8378-27.672-5.1934a16.002 16.002 0 0 0-5.5137-1.041zm7.3711 34.951c8.406 2.0506 17.014 3.2252 25.697 3.2891a16.002 16.002 0 0 0 0.23438 0c8.6832-0.0639 17.291-1.2384 25.697-3.2891l40.998 71.01c-21.332 7.995-43.94 12.212-66.812 12.277-22.873-0.0653-45.481-4.2824-66.812-12.277l40.998-71.01z"/></svg>