<svg xmlns="http://www.w3.org/2000/svg" width="512" height="512" viewBox="0 0 512 512" fill="#fff"><path d="m192 32a16.002 16.002 0 0 0-11.314 4.6855l-96 96a16.002 16.002 0 0 0-4.6855 11.314v288c0 26.315 21.685 48 48 48h256c26.315 0 48-21.685 48-48v-352c0-26.315-21.685-48-48-48zm6.6289 32h185.37c9.1408 0 16 6.8592 16 16v352c0 9.1408-6.8592 16-16 16h-256c-9.1408 0-16-6.8592-16-16v-281.37zm25.371 32a16 16 0 0 0-16 16v96a16 16 0 0 0 16 16 16 16 0 0 0 16-16v-96a16 16 0 0 0-16-16zm64 0a16 16 0 0 0-16 16v96a16 16 0 0 0 16 16 16 16 0 0 0 16-16v-96a16 16 0 0 0-16-16zm64 0a16 16 0 0 0-16 16v96a16 16 0 0 0 16 16 16 16 0 0 0 16-16v-96a16 16 0 0 0-16-16zm-192 48a16 16 0 0 0-16 16v48a16 16 0 0 0 16 16 16 16 0 0 0 16-16v-48a16 16 0 0 0-16-16z"/></svg>