<svg xmlns="http://www.w3.org/2000/svg" width="512" height="512" viewBox="0 0 512 512" fill="#fff"><path d="m80 32c-26.315 0-48 21.685-48 48v32c0 26.315 21.685 48 48 48h352c21.381 0 39.706-14.316 45.826-33.799 1.4123-4.4961 2.1738-9.2671 2.1738-14.201v-32c0-1.6447-0.0847-3.2706-0.25-4.875-0.49575-4.8131-1.7157-9.4264-3.5488-13.727-7.3324-17.201-24.465-29.398-44.201-29.398h-320zm16 32a32 32 0 0 1 32 32 32 32 0 0 1-32 32 32 32 0 0 1-32-32 32 32 0 0 1 32-32zm80 0h256c9.1408 0 16 6.8592 16 16v32c0 9.1408-6.8592 16-16 16h-256c-9.1408 0-16-6.8592-16-16v-32c0-9.1408 6.8592-16 16-16zm-96 128c-26.315 0-48 21.685-48 48v32c0 26.315 21.685 48 48 48h352c21.381 0 39.706-14.316 45.826-33.799 1.4123-4.4961 2.1738-9.2671 2.1738-14.201v-32c0-1.6447-0.0847-3.2706-0.25-4.875-0.49575-4.8131-1.7157-9.4264-3.5488-13.727-7.3324-17.201-24.465-29.398-44.201-29.398h-320zm16 32a32 32 0 0 1 32 32 32 32 0 0 1-32 32 32 32 0 0 1-32-32 32 32 0 0 1 32-32zm80 0h256c9.1408 0 16 6.8592 16 16v32c0 9.1408-6.8592 16-16 16h-256c-9.1408 0-16-6.8592-16-16v-32c0-9.1408 6.8592-16 16-16zm-96 128c-26.315 0-48 21.685-48 48v32c0 26.315 21.685 48 48 48h352c21.381 0 39.706-14.316 45.826-33.799 1.4123-4.4961 2.1738-9.2671 2.1738-14.201v-32c0-1.6447-0.0847-3.2706-0.25-4.875-0.49575-4.8131-1.7157-9.4264-3.5488-13.727-7.3324-17.201-24.465-29.398-44.201-29.398h-320zm16 32a32 32 0 0 1 32 32 32 32 0 0 1-32 32 32 32 0 0 1-32-32 32 32 0 0 1 32-32zm80 0h256c9.1408 0 16 6.8592 16 16v32c0 9.1408-6.8592 16-16 16h-256c-9.1408 0-16-6.8592-16-16v-32c0-9.1408 6.8592-16 16-16z"/></svg>