<svg xmlns="http://www.w3.org/2000/svg" width="512" height="512" viewBox="0 0 512 512" fill="#fff"><path d="m80 32c-26.315 0-48 21.685-48 48v352c0 26.315 21.685 48 48 48h352c26.315 0 48-21.685 48-48v-352c0-26.315-21.685-48-48-48h-352zm0 32h352c9.1408 0 16 6.8592 16 16v90.666h-384v-90.666c0-9.1408 6.8592-16 16-16zm40 29.334a24 24 0 0 0-24 24 24 24 0 0 0 24 24 24 24 0 0 0 24-24 24 24 0 0 0-24-24zm-56 109.33h384v106.67h-384v-106.67zm56 29.334a24 24 0 0 0-24 24 24 24 0 0 0 24 24 24 24 0 0 0 24-24 24 24 0 0 0-24-24zm-56 109.33h384v90.666c0 9.1408-6.8592 16-16 16h-352c-9.1408 0-16-6.8592-16-16v-90.666zm56 29.332a24 24 0 0 0-24 24 24 24 0 0 0 24 24 24 24 0 0 0 24-24 24 24 0 0 0-24-24z"/></svg>