<svg xmlns="http://www.w3.org/2000/svg" width="512" height="512" viewBox="0 0 512 512" fill="#fff"><path d="m216 32a16.002 16.002 0 0 0-15.814 13.566l-9.2969 60.428c-11.481 4.9327-22.338 11.149-32.404 18.553l-56.816-22.1a16.002 16.002 0 0 0-19.656 6.9121l-40 69.281a16.002 16.002 0 0 0 3.8418 20.479l47.523 38.137c-0.76712 6.1691-1.3149 12.362-1.377 18.584a16.002 16.002 0 0 0 0 0.32032c0.06208 6.2216 0.60984 12.415 1.377 18.584l-47.523 38.137a16.002 16.002 0 0 0-3.8418 20.479l40 69.281a16.002 16.002 0 0 0 19.656 6.9121l56.816-22.1c10.066 7.4035 20.924 13.62 32.404 18.553l9.2969 60.428a16.002 16.002 0 0 0 15.814 13.566h80a16.002 16.002 0 0 0 15.814-13.566l9.2969-60.428c11.481-4.9327 22.338-11.149 32.404-18.553l56.816 22.1a16.002 16.002 0 0 0 19.656-6.9121l40-69.281a16.002 16.002 0 0 0-3.8418-20.479l-47.523-38.137c0.76711-6.1691 1.3149-12.362 1.377-18.584a16.002 16.002 0 0 0 0-0.1875c-0.0109-6.2962-0.51872-12.568-1.252-18.816l47.398-38.037a16.002 16.002 0 0 0 3.8418-20.479l-40-69.281a16.002 16.002 0 0 0-19.656-6.9121l-56.641 22.029c-10.124-7.5225-21.062-13.839-32.637-18.85l-9.2402-60.061a16.002 16.002 0 0 0-15.814-13.566zm13.727 32h52.547l8.5195 55.375a16.002 16.002 0 0 0 10.34 12.6c14.467 5.2691 27.9 13.028 39.693 22.928a16.002 16.002 0 0 0 16.088 2.6582l52.227-20.314 26.271 45.508-43.717 35.082a16.002 16.002 0 0 0-5.7383 15.283c1.3404 7.5288 2.02 15.16 2.0391 22.807-0.0809 7.6123-0.81563 15.204-2.2051 22.689a16.002 16.002 0 0 0 5.7168 15.398l43.904 35.232-26.271 45.508-52.355-20.365a16.002 16.002 0 0 0-16.023 2.6035c-11.766 9.7716-25.139 17.423-39.525 22.615a16.002 16.002 0 0 0-10.383 12.617l-8.5801 55.775h-52.547l-8.5801-55.775a16.002 16.002 0 0 0-10.383-12.617c-14.386-5.192-27.76-12.844-39.525-22.615a16.002 16.002 0 0 0-16.023-2.6035l-52.355 20.365-26.271-45.508 43.904-35.232a16.002 16.002 0 0 0 5.7168-15.398c-1.3849-7.4606-2.1162-15.028-2.2012-22.615 0.0849-7.5874 0.81626-15.155 2.2012-22.615a16.002 16.002 0 0 0-5.7168-15.398l-43.904-35.232 26.271-45.508 52.355 20.365a16.002 16.002 0 0 0 16.023-2.6035c11.766-9.7716 25.139-17.423 39.525-22.615a16.002 16.002 0 0 0 10.383-12.617zm26.273 120c-39.575 0-72 32.425-72 72s32.425 72 72 72 72-32.425 72-72-32.425-72-72-72zm0 32c22.281 0 40 17.719 40 40s-17.719 40-40 40-40-17.719-40-40 17.719-40 40-40z"/></svg>