<svg xmlns="http://www.w3.org/2000/svg" width="512" height="512" viewBox="0 0 512 512" fill="#fff"><path d="m256 43.023a16.032 15.968 0 0 0-15.244 11.026l-45.502 139.47-147.23 5e-3a16.032 15.968 0 0 0-9.4215 28.882l119.11 86.202-45.492 139.47a16.032 15.968 0 0 0 24.665 17.85l119.12-86.192 119.12 86.192a16.032 15.968 0 0 0 24.668-17.85l-45.492-139.47 119.11-86.202a16.032 15.968 0 0 0-9.4215-28.882l-147.23-0.0051-45.502-139.47a16.032 15.968 0 0 0-15.246-11.026zm0 67.623 33.857 103.77a16.032 15.968 0 0 0 15.244 11.031l109.55 3e-3 -88.625 64.14a16.032 15.968 0 0 0-5.8223 17.85l33.847 103.77-88.628-64.13a16.032 15.968 0 0 0-18.843 0l-88.625 64.13 33.847-103.77a16.032 15.968 0 0 0-5.8248-17.85l-88.625-64.14 109.55-3e-3a16.032 15.968 0 0 0 15.246-11.031z"/></svg>