<svg xmlns="http://www.w3.org/2000/svg" width="512" height="512" viewBox="0 0 512 512" fill="#fff"><path d="m256 32c-123.52 0-224 100.48-224 224s100.48 224 224 224 224-100.48 224-224-100.48-224-224-224zm0 32c106.23 0 192 85.772 192 192s-85.772 192-192 192-192-85.772-192-192 85.772-192 192-192zm97.395 104.06a16 16 0 0 0-5.5352 0.48437 16 16 0 0 0-7.1738 4.1426l-132.69 132.69-36.686-36.686a16 16 0 0 0-22.629 0 16 16 0 0 0 0 22.627l48 48a16.002 16.002 0 0 0 22.629 0l144-144a16 16 0 0 0 0-22.627 16 16 0 0 0-9.9199-4.627z"/></svg>