<svg xmlns="http://www.w3.org/2000/svg" width="512" height="512" viewBox="0 0 512 512" fill="#fff"><path d="m112 32a16.002 16.002 0 0 0-13.154 25.107l137.69 198.89-137.69 198.89a16.002 16.002 0 0 0 13.154 25.107h288a16.002 16.002 0 0 0 16-16v-112a16 16 0 0 0-16-16 16 16 0 0 0-16 16v32h-197.16l121.23-175.11a16.002 16.002 0 0 0 0-18.215l-87.696-126.67h163.62v32a16 16 0 0 0 16 16 16 16 0 0 0 16-16v-48a16.002 16.002 0 0 0-16-16zm30.537 32h38.922l94.001 135.78-19.459 28.109zm22.152 352h219.31v32h-241.46z"/></svg>