<svg xmlns="http://www.w3.org/2000/svg" width="512" height="512" viewBox="0 0 512 512" fill="#fff"><path d="m256 32c-61.666 0-112 50.334-112 112 0 61.666 50.334 112 112 112s112-50.334 112-112c0-61.666-50.334-112-112-112zm0 32c44.372 0 80 35.628 80 80 0 44.372-35.628 80-80 80s-80-35.628-80-80c0-44.372 35.628-80 80-80zm0 224c-60.763 0-116.08 18.829-156.83 50.182-40.758 31.352-67.166 76.015-67.166 125.82a16.002 16.002 0 0 0 16 16h416a16.002 16.002 0 0 0 16-16c0-49.803-26.408-94.466-67.166-125.82-40.758-31.352-96.071-50.182-156.83-50.182zm0 32c54.112 0 102.8 16.989 137.32 43.545 29.681 22.831 48.645 52.174 53.408 84.455h-381.46c4.7628-32.281 23.727-61.624 53.408-84.455 34.523-26.556 83.211-43.545 137.32-43.545z"/></svg>