<svg xmlns="http://www.w3.org/2000/svg" width="512" height="512" viewBox="0 0 512 512" fill="#fff"><path d="m43.859 32.545c-2.7133 0.72658-5.1875 2.1546-7.1738 4.1406-6.2494 6.2486-6.2494 16.38 0 22.629l416 416c6.2486 6.2494 16.38 6.2494 22.629 0 6.2494-6.2486 6.2494-16.38 0-22.629l-416-416c-4.0422-4.0419-9.9336-5.6203-15.455-4.1406zm210.49 79.541c-2.979 0.30837-5.8117 1.4466-8.1758 3.2852l-35.395 27.529 22.803 22.803 6.4141-4.9902v11.404l32 32v-76.117c-2e-3 -9.4869-8.2098-16.889-17.646-15.914zm67.604 9.3984c-1.3881-0.17093-2.7927-0.15911-4.1777 0.0352-5.6607 0.79357-10.468 4.5467-12.611 9.8457-3.3135 8.1915 0.64066 17.518 8.832 20.832 42.338 17.127 69.983 58.116 70 103.79-0.043 17.298-4.0669 33.906-11.33 48.805l23.586 23.586c12.589-21.514 19.684-46.343 19.744-72.336v-0.046c-0.0112-58.618-35.658-111.48-90-133.46-1.296-0.52476-2.6553-0.87737-4.043-1.0488zm-218.8 49.553c-4.3606 2.8914-7.0322 7.7321-7.1543 12.963v144c8.83e-4 8.8362 7.1638 15.999 16 16h66.51l67.668 52.629c10.51 8.1697 25.818 0.68269 25.822-12.629v-44.117l-32-32v43.404l-46.178-35.916c-2.8083-2.1844-6.2645-3.3706-9.8223-3.3711h-56v-112h4.1172zm217.11 26.658c-8.9382-0.1475-16.264 7.0567-16.266 15.996v22.426l44.135 44.135c2.4856-7.7843 3.8581-15.938 3.8652-24.238v-0.02c-7e-3 -19.471-7.121-38.281-20-52.885-2.1497-2.4372-4.9905-4.1622-8.1445-4.9453-1.175-0.29155-2.3794-0.4488-3.5898-0.46875z"/></svg>