<svg xmlns="http://www.w3.org/2000/svg" width="512" height="512" viewBox="0 0 512 512" fill="#fff"><path d="m256 32c-35.157 0-64 28.843-64 64 0 11.629 3.1558 22.568 8.6523 32h-78.176c-24.724 0-46.126 18.152-49.529 42.619l-36.49 262.35c-3.4421 24.748 16.589 47.029 41.512 47.029h356.06c24.923 0 44.954-22.281 41.512-47.029l-36.49-262.35c-3.4031-24.467-24.805-42.619-49.529-42.619h-78.176c5.4965-9.4322 8.6523-20.371 8.6523-32 0-35.157-28.843-64-64-64zm0 32c17.863 0 32 14.137 32 32 0 17.863-14.137 32-32 32-17.863 0-32-14.137-32-32 0-17.863 14.137-32 32-32zm-133.52 96h133.52 133.52c9.2737 0 16.644 6.4706 17.834 15.029l36.49 262.35c0.79916 5.7457-3.3484 10.619-9.8164 10.619h-356.06c-6.468 0-10.616-4.8734-9.8164-10.619l36.49-262.35c1.1904-8.5587 8.5603-15.029 17.834-15.029z"/></svg>