<svg xmlns="http://www.w3.org/2000/svg" width="512" height="512" viewBox="0 0 512 512" fill="#fff"><path d="m255.9 94.373c-81.339 0.10913-158.81 34.862-212.97 95.541a16.002 16.002 0 0 0 0.62109 21.969l201.06 201.06a16.002 16.002 0 0 0 22.629 0l201.22-201.22a16.002 16.002 0 0 0 0.61328-21.979c-54.239-60.66-131.77-95.352-213.15-95.367a16.002 16.002 0 0 0-0.0254 0zm0.0176 32h0.0254c67.219 0.0195 131.43 26.688 178.84 73.76l-22.598 22.598c-41.457-41.103-97.591-64.351-156.27-64.357a16.002 16.002 0 0 0-0.0352 0c-58.623 0.12096-114.67 23.438-156.03 64.559l-22.644-22.645c47.355-47.095 111.51-73.817 178.71-73.914zm2e-3 64c50.186 6e-3 98.167 19.855 133.64 54.982l-133.64 133.64-133.44-133.44c35.396-35.151 83.3-55.069 133.44-55.182z"/></svg>