<svg xmlns="http://www.w3.org/2000/svg" width="512" height="512" viewBox="0 0 512 512" fill="#fff"><path d="m255.9 94.372c-81.339 0.10913-158.81 34.862-212.97 95.541a16 16 0 0 0 1.2813 22.59 16 16 0 0 0 22.59-1.2812c48.112-53.896 116.87-84.745 189.12-84.85 72.284 0.0138 141.12 30.81 189.3 84.695a16 16 0 0 0 22.592 1.2637 16 16 0 0 0 1.2637-22.592c-54.239-60.66-131.77-95.352-213.15-95.367a16.002 16.002 0 0 0-0.0254 0zm-0.0176 127c-47.952 0.11473-93.319 21.884-123.41 59.219a16 16 0 0 0 2.416 22.498 16 16 0 0 0 22.498-2.416c24.045-29.831 60.241-47.201 98.555-47.299 38.343 0.0139 74.6 17.329 98.709 47.145a16 16 0 0 0 22.502 2.3809 16 16 0 0 0 2.3809-22.502c-30.173-37.315-75.618-59.016-123.61-59.025a16.002 16.002 0 0 0-0.043 0zm0.0391 127a32 32 0 0 0-32 32 32 32 0 0 0 32 32 32 32 0 0 0 32-32 32 32 0 0 0-32-32z"/></svg>