<svg xmlns="http://www.w3.org/2000/svg" width="512" height="512" viewBox="0 0 512 512" fill="#fff"><path d="m43.859 32.545a16 16 0 0 0-7.1738 4.1406 16 16 0 0 0 0 22.629l416 416a16 16 0 0 0 22.629 0 16 16 0 0 0 0-22.629l-416-416a16 16 0 0 0-15.455-4.1406zm212.04 61.828c-27.525 0.03693-54.579 4.1319-80.465 11.766l26.252 26.252c17.665-3.8921 35.821-5.9852 54.225-6.0117l0.00586-0.00586h0.02539c67.219 0.0195 131.43 26.688 178.84 73.76l-82.678 82.676 22.635 22.635 93.721-93.721a16.002 16.002 0 0 0 0.61328-21.979c-54.239-60.66-131.77-95.352-213.15-95.367a16.002 16.002 0 0 0-0.02539 0l0.00195-0.003906zm-172.52 58.301c-14.521 11.026-28.114 23.423-40.447 37.24a16.002 16.002 0 0 0 0.62109 21.969l201.06 201.06a16.002 16.002 0 0 0 22.629 0l38.203-38.203-22.635-22.635-26.896 26.898-178.71-178.71c9.0806-9.0307 18.789-17.297 29.008-24.785l-22.834-22.834z"/></svg>