<svg xmlns="http://www.w3.org/2000/svg" width="512" height="512" viewBox="0 0 512 512" fill="#fff"><path d="m255.9 94.373c-81.339 0.10913-158.81 34.862-212.97 95.541a16.002 16.002 0 0 0 0.62109 21.969l201.06 201.06a16.002 16.002 0 0 0 22.629 0l201.22-201.22a16.002 16.002 0 0 0 0.61328-21.979c-54.239-60.66-131.77-95.352-213.15-95.367a16.002 16.002 0 0 0-0.0254 0zm0.0176 32h0.0254c67.219 0.0195 131.43 26.688 178.84 73.76l-178.87 178.87-178.71-178.71c47.355-47.095 111.51-73.817 178.71-73.914z"/></svg>