<svg xmlns="http://www.w3.org/2000/svg" width="512" height="512" viewBox="0 0 512 512" fill="#fff"><path d="m255.9 94.373c-81.339 0.10913-158.81 34.862-212.97 95.541a16.002 16.002 0 0 0 0.62109 21.969l201.06 201.06a16.002 16.002 0 0 0 22.629 0l201.22-201.22a16.002 16.002 0 0 0 0.61328-21.979c-54.239-60.66-131.77-95.352-213.15-95.367a16.002 16.002 0 0 0-0.0254 0zm0.0176 32h0.0254c67.219 0.0195 131.43 26.688 178.84 73.76l-67.895 67.895c-29.445-29.098-69.268-45.639-110.96-45.654a16.002 16.002 0 0 0-0.0137 0c-41.696 0.0198-81.515 16.561-110.96 45.66l-67.746-67.746c47.355-47.095 111.51-73.817 178.71-73.914zm-2e-3 128c33.205 0.0123 64.882 13.144 88.356 36.275l-88.35 88.35-88.342-88.342c23.467-23.129 55.138-36.264 88.336-36.283z"/></svg>